<svg width="64" height="64" fill="none" xmlns="http://www.w3.org/2000/svg"><path d="M58.988 37.789c-.0036-.1922-.0558-.3792-.1194-.5616l-9.1587-20.5383c-.2487-.5332-.8086-.8928-1.3938-.9059h-16.797v-3.7165h4.5853c.8437 0 1.5265-.6858 1.5265-1.5334 0-.84674-.6828-1.5333-1.5265-1.5333H23.8927c-.8437 0-1.5264.68656-1.5264 1.5333 0 .8476.6827 1.5334 1.5264 1.5334h4.5735v3.7165H11.6811c-.5849.0125-1.1453.3732-1.3938.9059L1.12854 37.2274c-.08469.2372-.137214.4865-.12736.735.00038.0053.00038.0104.00075.0158.67454 14.432 20.68877 14.4211 21.35827 0 .0004-.0054.0004-.0105.0008-.0158.0099-.2487-.043-.4976-.1274-.735l-8.1952-18.3775h14.4278v33.0834h-4.5735c-.8437 0-1.5264.6858-1.5264 1.5334 0 .8475.6827 1.5333 1.5264 1.5333h12.2117c.8437 0 1.5265-.6858 1.5265-1.5333 0-.8476-.6828-1.5334-1.5265-1.5334h-4.5853V18.8499h14.4396l-8.1952 18.3775c-.0847.2373-.1371.4864-.1273.735.0004.0053.0004.0104.0007.0158.6746 14.432 20.6888 14.4211 21.3583 0 .0004-.0054.0004-.0105.0008-.0158.0036-.0592.0097-.1169-.008-.1734ZM11.6811 45.8c-3.70436 0-6.802-2.7627-7.48921-6.4118H19.1703c-.6872 3.6491-3.7849 6.4118-7.4892 6.4118Zm-6.802-9.4785 6.802-15.254 6.802 15.254H4.8791Zm43.437-15.254 6.8019 15.254H41.5141l6.802-15.254Zm0 24.7325c-3.7044 0-6.802-2.7627-7.4892-6.4118h14.9784C55.118 43.0373 52.0204 45.8 48.3161 45.8Z" fill="#849080" opacity=".56"/></svg>