<svg width="24" height="24" fill="none" xmlns="http://www.w3.org/2000/svg"><path d="M12 22c4.382 0 6.818 0 8.409-1.591C22 18.818 22 16.3835 22 12c0-4.38348 0-6.81802-1.591-8.40901C18.818 2 16.382 2 12 2 7.61798 2 5.18198 2 3.59099 3.59099 2 5.18198 2 7.61798 2 12c0 4.382 0 6.818 1.59099 8.409C5.18198 22 7.61798 22 12 22Z" fill="#1A341B"/><path d="M15.7568 10.0234c-.7554 0-1.3161.5832-1.3161 1.3027 0 .5875.4131 1.0459.936 1.1816l-1.072 1.6421h1.0013l.9114-1.5283h.6821v1.5283h.836v-4.1264h-1.9787Zm.1149 1.9c-.3438 0-.5566-.2698-.5566-.5773 0-.3076.1951-.6006.5566-.6006h1.0289v1.1779h-1.0289ZM11.1759 10.0234l-.2775.7638 1.1384-.0065-.6742 2.4726c-.1922.721.5593 1.2657 1.2005.8417l1.4582-.9893-.4294-.631-1.4564 1.0089.9817-3.4602h-1.9413ZM12.7464 9.49152c.3195 0 .5785-.23334.5785-.52116 0-.28782-.259-.52114-.5785-.52114s-.5784.23332-.5784.52114c0 .28782.2589.52116.5784.52116ZM9.79848 13.3861V9.0625H6.59074v2.3076c0 1.0858-.31442 1.7571-.49974 2.0142h-.38006v1.8859h.81344v-1.1149h3.04128v1.1167h.81304v-1.8859h-.58022Zm-2.399-2.0635V9.82952h1.56488v3.55408H6.94434c.18314-.2996.45514-1.0619.45514-2.061Z" fill="#FFFCF6"/></svg>