<svg width="16" height="16" viewBox="0 0 16 16" fill="currentColor" xmlns="http://www.w3.org/2000/svg">
  <path d="M8.002 15.332c3.73 0 6.83-3.093 6.83-6.83 0-3.73-3.107-6.83-6.837-6.83-3.736 0-6.823 3.1-6.823 6.83 0 3.737 3.093 6.83 6.83 6.83Zm0-1.138a5.665 5.665 0 0 1-5.686-5.692A5.663 5.663 0 0 1 7.995 2.81a5.689 5.689 0 0 1 5.699 5.692 5.67 5.67 0 0 1-5.692 5.692m-.007-4.48c.321 0 .502-.18.509-.529l.1-3.535c.007-.342-.261-.596-.616-.596-.362 0-.616.247-.61.589l.088 3.542c.006.342.194.53.529.53Zm0 2.176c.381 0 .723-.308.723-.696 0-.395-.335-.696-.723-.696-.395 0-.723.308-.723.696 0 .382.334.696.723.696Z" />
</svg>
