<svg  viewBox="0 0 130 130" fill="none" xmlns="http://www.w3.org/2000/svg">
<path d="M20 34.0213C20 62.7515 20.0447 67.6715 20.335 70.9553C21.2951 81.7305 24.332 89.5447 30.3724 96.8246C32.5942 99.4962 36.5355 103.292 40.4879 106.587C43.6253 109.192 65.0287 126 65.2186 126C65.386 126 84.255 111.218 87.6157 108.457C94.8618 102.491 99.2609 97.9378 102.555 92.9954C105.502 88.5874 107.344 84.4354 108.64 79.3038C109.421 76.2316 109.823 73.6491 110.236 69.1186C110.325 68.139 110.37 58.388 110.404 35.858L110.448 4H65.2186H20V34.0213ZM109.321 11.792V18.4708H65.2186H21.1165V11.792V5.11314H65.2186H109.321V11.792ZM64.6603 22.5115V25.4502L63.0749 25.517C59.2676 25.6951 55.371 26.5967 52.3229 28.0327C45.7913 31.1049 41.236 36.9712 39.1369 45.008C38.1879 48.648 37.7078 53.7796 38.0874 56.2062C38.3331 57.7535 39.3714 59.2005 40.7224 59.8796C41.3811 60.2135 41.4369 60.2803 41.4369 60.7701C41.4481 61.8164 42.0175 63.1299 42.8437 63.9982C43.1675 64.3321 43.4578 64.744 43.5025 64.8998C43.6476 65.5009 44.1836 65.9462 45.4787 66.5918L46.7515 67.2151L46.8967 68.2281C46.9748 68.7847 47.1981 69.8867 47.3991 70.677L47.7452 72.1241L46.9078 72.3022C43.5583 73.0257 40.1083 74.6954 37.8083 76.6768C35.1175 79.0033 33.3758 82.3872 33.0855 85.8157L33.0073 86.7507L29.8253 87.9529C28.0723 88.6097 26.5874 89.1551 26.5204 89.1551C26.3976 89.1551 25.2922 86.9288 24.6447 85.3704C24.0306 83.8677 23.2937 81.5746 22.8136 79.6378C22.1437 76.9662 21.7752 74.6286 21.3175 70.1761C21.2393 69.3301 21.1835 61.2487 21.15 44.2622L21.1053 19.5839H42.8884H64.6603V22.5115ZM109.287 43.9839C109.254 66.013 109.231 68.5843 109.064 70.2874C108.461 76.2538 107.411 80.7286 105.558 85.2035C105.134 86.2276 103.805 88.9993 103.671 89.144C103.615 89.1996 101.795 88.554 100.5 88.0197C96.2351 86.2387 92.8186 83.4892 91.3337 80.6619C90.8647 79.7602 90.8536 79.738 90.8312 78.5246C90.8089 77.2 90.7977 77.1555 89.8487 74.406C89.0448 72.0796 88.8327 70.8106 88.922 68.7958C88.989 67.1929 89.0895 66.5473 89.7147 63.7755C90.1278 61.9277 90.474 59.7571 90.6861 57.5976C90.8647 55.85 90.8647 50.9299 90.6973 49.3047C89.8152 41.1009 86.9123 34.923 82.022 30.8489C78.1589 27.6208 73.1234 25.7952 67.3176 25.517L65.7768 25.4502V22.5115V19.5839H87.5487H109.332L109.287 43.9839ZM67.3957 26.6078C72.487 26.9418 76.6404 28.2775 80.0681 30.6931C81.4302 31.6504 83.8084 34.0213 84.7909 35.3905C85.7511 36.7374 87.4036 40.0657 87.9841 41.7911C89.1006 45.1527 89.6254 48.1026 89.7594 51.8093C89.9269 56.2841 89.5472 59.7794 88.2856 65.256C87.4929 68.7179 87.6492 71.3894 88.8327 74.8179C89.7594 77.456 89.804 77.6453 89.7482 78.6916C89.6477 80.6507 88.7657 82.1757 86.3317 84.6024C83.2167 87.6969 79.9006 89.8007 72.42 93.4518C69.8297 94.7097 65.9554 96.5018 65.8215 96.5018C65.7991 96.5018 65.7768 96.1679 65.7768 95.7449L65.788 94.9991L66.4021 94.6095C67.2394 94.0863 68.4341 92.8173 68.8695 91.9825C69.0705 91.604 69.305 91.0029 69.3831 90.6578L69.5283 90.0122L70.2205 89.823C71.9623 89.3443 72.7996 88.131 72.6657 86.2832C72.6098 85.4484 72.3084 84.3686 72.1521 84.3686C72.1074 84.3686 71.9288 84.5245 71.739 84.7137C71.2589 85.2369 70.1424 85.927 69.7851 85.927C69.305 85.927 69.1375 85.8157 68.903 85.3704C68.4676 84.5245 68.4453 83.8677 68.4788 73.9608L68.5122 64.3878L73.1011 63.8201C75.6244 63.4973 78.2147 63.1522 78.8511 63.052C79.4875 62.9407 80.4477 62.8405 80.9836 62.8405C82.223 62.8294 82.5579 63.0297 82.6137 63.7978C82.6472 64.3099 82.4798 64.6549 81.5754 65.8237L81.2516 66.2467L82.2453 66.2022C83.0045 66.1688 83.3841 66.0909 83.7861 65.9016C84.6346 65.4898 85.4832 64.6438 85.8963 63.7978C86.2424 63.0965 86.2647 62.9852 86.2982 61.5827C86.3205 60.7701 86.3875 60.1022 86.4434 60.1022C86.4992 60.1022 86.7672 59.9018 87.0351 59.6569C87.5934 59.1449 88.0065 58.2878 88.0176 57.631C88.0288 56.9854 87.3924 55.8055 86.8118 55.3713L86.354 55.0374L86.2982 53.479C86.2536 52.0653 86.2201 51.865 85.9633 51.3641C85.2375 49.9615 83.7972 49.1934 81.888 49.1934H81.1623L81.8322 49.9058C82.5244 50.6516 82.9487 51.531 82.8035 51.9651C82.7701 52.0876 82.5579 52.3436 82.3458 52.5217L81.955 52.8668H75.2671H68.5681V50.5292V48.1916H70.187H71.8059V43.1713V38.1511L71.4263 37.7726C70.7453 37.0936 69.7404 37.3274 69.3273 38.2513C68.8807 39.2531 68.3448 41.4794 68.1773 42.9599C68.021 44.4626 68.0322 44.4069 67.5632 44.4069H67.1389L67.0831 40.2549C67.0385 36.7597 66.9938 35.9359 66.804 34.9453C66.6812 34.2996 66.5249 33.4314 66.4467 33.0084C66.2569 31.9954 65.8885 31.5502 65.2186 31.5502C64.4928 31.5502 64.1914 31.9732 63.9457 33.2755C63.4656 35.9248 63.4098 36.5482 63.354 40.4776L63.2982 44.4069H62.8739C62.405 44.4069 62.4161 44.4626 62.2598 42.9599C62.1147 41.6352 61.7016 39.8542 61.2326 38.5073C60.9758 37.7615 60.5292 37.3942 59.904 37.3942C59.4685 37.3942 59.3346 37.4498 59.0108 37.7726L58.6312 38.1511V43.1713V48.1916H60.2501H61.869V48.8595V49.5274H54.3996H46.9302L46.8743 45.765C46.8185 41.6909 46.7292 40.9562 46.1486 39.7318C45.8025 38.9859 45.0544 38.229 44.2059 37.7392C43.8486 37.5389 43.5583 37.3385 43.5583 37.294C43.5583 37.1715 44.6302 35.6465 45.2889 34.8339C46.037 33.91 47.6336 32.3405 48.6384 31.5502C53.2049 27.9102 60.0268 26.1181 67.3957 26.6078ZM65.5423 34.077C65.9778 36.4814 66.0113 37.038 66.0783 41.2568L66.1453 45.4088H67.619H69.0928L69.1598 44.1509C69.2491 42.7484 69.5283 41.1566 69.9637 39.6761C70.2987 38.5407 70.4215 38.3292 70.6448 38.5184C70.7788 38.6297 70.8011 39.3867 70.7788 42.8374L70.7453 47.0228L68.3894 47.0562L66.0336 47.0785L65.6652 49.0042C65.4642 50.0505 65.2744 50.9522 65.2297 51.0078C65.1851 51.0524 65.0064 50.2954 64.8389 49.3381C64.6715 48.3697 64.504 47.4681 64.4705 47.3345C64.4147 47.0896 64.3923 47.0785 62.0477 47.0562L59.6918 47.0228L59.6695 42.8485C59.6472 40.3328 59.6807 38.6075 59.7477 38.5073C59.9263 38.2179 60.1496 38.5852 60.4734 39.6761C60.9088 41.1566 61.188 42.7484 61.2773 44.1509L61.3443 45.4088H62.8962H64.437V41.4237C64.437 39.242 64.4817 37.0268 64.5486 36.5036C64.705 35.1234 65.1292 32.719 65.2186 32.719C65.2632 32.719 65.4084 33.3312 65.5423 34.077ZM43.7816 38.7522C45.3894 39.8208 45.702 40.7558 45.8583 44.9635C45.903 46.1546 45.8918 47.6684 45.8583 48.314L45.769 49.494L44.7418 49.5496C43.4802 49.6164 42.7209 49.9281 41.8724 50.7184C41.3811 51.1748 41.1355 51.5755 40.1976 53.479L39.0923 55.7053L39.1369 53.2007C39.2151 49.4828 39.684 46.6777 40.8229 43.2159C41.3588 41.6018 42.8102 38.2847 42.9889 38.2847C43.0336 38.2847 43.3797 38.4962 43.7816 38.7522ZM63.5438 48.2139C63.5438 48.2361 63.6666 48.9485 63.8229 49.8057C64.0016 50.7741 64.1802 51.4642 64.303 51.6423C64.7831 52.2768 65.5535 52.3325 66.0336 51.7536C66.2457 51.5088 66.3686 51.0746 66.6142 49.8168L66.9156 48.1916H67.2394H67.5632V51.0858V53.9799H74.6642C79.7332 53.9799 81.8992 53.9465 82.2006 53.8464C82.7142 53.7016 83.4623 53.0894 83.6968 52.633C83.8866 52.2768 83.9201 51.3529 83.7526 50.9299C83.6186 50.5626 83.7302 50.5626 84.2773 50.9633C85.0701 51.531 85.204 51.9874 85.204 54.0578V55.8389L85.6395 55.9724C86.1531 56.1171 86.6667 56.6849 86.8565 57.2971C86.9681 57.6533 86.9458 57.7757 86.7225 58.2766C86.4322 58.8889 86.0191 59.2117 85.4832 59.2117H85.204V61.015C85.204 63.1077 85.1259 63.3637 84.2104 64.2653L83.6521 64.8108L83.7079 64.0427C83.7861 63.0075 83.5181 62.5177 82.6137 62.0724C81.7652 61.6383 80.9613 61.6606 77.4108 62.1615C73.8268 62.6735 68.5792 63.308 68.5122 63.2301C68.4788 63.2078 68.4564 62.8182 68.4564 62.373V61.5715L68.8249 61.5047C69.0147 61.4714 72.1856 61.0484 75.8589 60.5474C80.1239 59.9797 82.6472 59.6013 82.8705 59.49C83.4734 59.1672 83.6521 58.733 83.6186 57.631C83.5851 56.785 83.5516 56.6292 83.306 56.3732C82.7366 55.7721 82.971 55.7832 75.4904 55.7498C67.7084 55.7053 68.1661 55.6608 67.6637 56.4622C67.4516 56.8073 67.4516 57.0856 67.4739 70.844L67.5074 84.8695L67.753 85.4929C68.0098 86.094 68.5011 86.6728 68.9812 86.9177C69.4948 87.1737 70.4885 87.0068 71.1807 86.5392L71.5826 86.2721V86.773C71.5826 88.0308 70.7788 88.7544 69.1933 88.8991L68.4788 88.9659L68.4341 89.7339C68.3448 90.8916 67.7977 91.9046 66.7035 92.9509L65.8326 93.7746L65.7768 73.3485L65.721 52.9224H55.3375C43.7928 52.9224 44.6413 52.8668 43.9268 53.6794C43.5806 54.069 42.4083 56.6069 41.9282 57.9984C41.7831 58.4547 41.6268 58.8889 41.6044 58.9668C41.5039 59.2562 40.2869 58.388 39.751 57.6422L39.5277 57.3305L40.9234 54.4808C42.2297 51.8316 42.3525 51.6201 42.8326 51.2861C43.1229 51.0858 43.5136 50.8631 43.7035 50.7852C43.9714 50.6962 46.5617 50.6516 53.4729 50.6516L62.8739 50.6405V49.4161V48.1916H63.2088C63.3986 48.1916 63.5438 48.2027 63.5438 48.2139ZM64.6603 54.8704V55.7609H56.5433C48.8506 55.7609 48.3928 55.7721 47.9573 55.9724C47.4103 56.2173 46.9748 56.7516 46.8073 57.375C46.6622 57.9093 46.651 62.1949 46.785 62.8182C46.9525 63.4973 47.4326 64.0093 48.3593 64.4657C49.5093 65.0334 51.9768 65.8349 53.3836 66.102C54.835 66.3803 57.4142 66.6029 58.0171 66.5027C58.6647 66.4026 59.2229 65.9907 59.6025 65.3117C60.6185 63.5418 62.1593 62.3285 64.0574 61.8387L64.6603 61.6828V62.5511V63.4193L64.0239 63.7422C62.6506 64.4212 61.1991 66.1465 60.585 67.8385C60.1943 68.9071 59.9375 69.1186 59.0889 69.1186C57.5481 69.1186 54.0646 68.5175 51.7423 67.8496C49.0069 67.0593 45.2219 65.4564 44.7306 64.8664L44.4515 64.5325V59.6347V54.7369L44.8311 54.3584L45.2107 53.9799H54.9355H64.6603V54.8704ZM64.6603 58.6885V60.6142L63.9681 60.7589C63.5773 60.8369 62.7846 61.1263 62.204 61.4046C61.3108 61.8276 60.987 62.0613 60.1831 62.8739C59.6472 63.3971 59.0554 64.1206 58.8545 64.4768C58.6535 64.8219 58.3855 65.1892 58.2627 65.2783C57.8384 65.5677 55.5831 65.4341 53.3501 64.9889C51.0501 64.5325 48.1918 63.3859 47.935 62.8294C47.8457 62.629 47.801 61.7385 47.801 60.0577C47.801 57.7201 47.8122 57.5531 48.0355 57.2748C48.1583 57.119 48.4263 56.9409 48.6161 56.8852C48.8171 56.8296 52.3899 56.7739 56.8224 56.7739L64.6603 56.7628V58.6885ZM82.4574 56.9854C82.6472 57.1746 82.6137 58.2766 82.4128 58.4659C82.3011 58.5772 80.1686 58.9 75.7696 59.4788C72.2079 59.9575 69.104 60.3693 68.8807 60.4027L68.4564 60.4695V58.8666C68.4564 57.542 68.4899 57.208 68.6462 56.9965L68.8249 56.7294L75.5797 56.7962C80.3919 56.8407 82.3681 56.8963 82.4574 56.9854ZM43.3127 61.5827L43.2792 62.9407L42.9554 62.2839C42.7544 61.8832 42.5869 61.2932 42.52 60.7701C42.4083 59.9241 42.4083 59.8907 42.8437 58.6551L43.2792 57.3973L43.3127 58.8109C43.3238 59.5901 43.3238 60.8369 43.3127 61.5827ZM64.6603 68.0166V71.3783L63.9569 71.3226C62.9074 71.2336 61.8244 70.5991 61.255 69.7531C61.0763 69.4748 61.0763 69.4414 61.2884 68.985C61.4001 68.7179 61.5899 68.2615 61.7016 67.9609C62.0365 67.0482 62.9744 65.7792 63.7448 65.1892C64.1355 64.8998 64.4928 64.6661 64.5598 64.6661C64.6156 64.6661 64.6603 65.9907 64.6603 68.0166ZM49.9447 68.4173C50.0675 68.4507 50.2015 68.7847 50.369 69.4859C50.7263 70.9442 51.5302 73.2038 52.2224 74.6509C54.7122 79.9495 58.8991 84.2016 63.8006 86.4279L64.6603 86.8064V87.9307V89.0438L63.9234 88.7655C61.936 88.0197 58.8545 86.2164 57.1909 84.8361C52.6913 81.096 49.4535 75.508 48.1918 69.2856C48.0355 68.5398 47.9127 67.8719 47.9127 67.8051C47.9127 67.7383 48.3258 67.8385 48.8394 68.0277C49.3418 68.217 49.8331 68.3951 49.9447 68.4173ZM52.7472 69.2299C55.0472 69.8088 58.7093 70.3208 59.6472 70.1984C60.0938 70.1427 60.1273 70.165 60.7972 70.8328C61.1656 71.2224 61.6234 71.6343 61.802 71.7568L62.1258 71.9794L61.6904 72.1241C61.4559 72.202 60.7302 72.5137 60.0938 72.8254C59.1559 73.2929 58.8098 73.4042 58.2181 73.4376L57.4923 73.4821L56.7778 72.7363L56.0632 71.9905L55.9404 72.3022C55.5608 73.2706 55.4938 73.5823 55.4826 74.2168C55.4826 75.1073 55.8957 76.0201 56.4875 76.4097C57.336 76.9662 58.0841 77.0553 61.0317 76.9774C62.5054 76.944 63.9234 76.8772 64.1914 76.8438L64.6603 76.7659V81.185C64.6603 83.6117 64.638 85.5931 64.6045 85.5931C64.4593 85.5931 62.6394 84.6358 61.8244 84.1237C57.9948 81.7639 54.7569 77.8568 52.7918 73.2261C52.1108 71.6232 51.2287 68.896 51.4074 68.896C51.4185 68.896 52.0214 69.0407 52.7472 69.2299ZM64.6603 74.1611V75.764L62.0477 75.8976C58.4972 76.0869 57.3472 75.9422 56.8559 75.252C56.6549 74.9737 56.4205 74.1277 56.5433 74.1277C56.5768 74.1277 56.8113 74.2279 57.0792 74.3504C57.9948 74.7622 58.8656 74.6286 60.4287 73.8494C61.5676 73.2817 63.6554 72.6027 64.3588 72.5805L64.6603 72.5693V74.1611ZM48.6942 74.74C49.018 75.5303 49.4088 76.4319 49.554 76.7325C49.9112 77.4338 49.8777 77.5005 48.3481 78.9588C46.6734 80.5617 43.2345 82.9772 42.9777 82.7212C42.9219 82.6655 42.7433 82.2536 42.5869 81.7973C42.1962 80.7064 42.0957 78.9254 42.386 77.9569C42.9666 75.9533 44.1836 74.8179 46.8855 73.7381C47.5442 73.471 48.0913 73.2595 48.0913 73.2706C48.1025 73.2817 48.3705 73.9385 48.6942 74.74ZM42.5088 75.2743C40.8452 77.3002 40.6889 80.5394 42.1068 83.3557C42.9666 85.081 44.5073 86.8064 46.1263 87.875C48.0467 89.144 53.4394 92.0381 60.2278 95.4443L64.6603 97.6706V110.961C64.6603 124.152 64.6603 124.241 64.437 124.097C64.3253 124.007 63.2982 123.217 62.1705 122.327L60.1161 120.713L59.8705 118.932C59.2117 114.167 58.3074 111.084 56.9899 109.147C56.6996 108.713 55.9292 107.834 55.2816 107.188C52.7807 104.706 49.3195 102.368 43.8263 99.485C41.035 98.0157 39.4272 96.858 37.7301 95.0659C34.5481 91.7376 33.4651 87.9084 34.5258 83.8343C35.3296 80.8066 37.2724 78.1796 40.153 76.265C40.9234 75.7418 42.6316 74.8068 42.8102 74.7956C42.8661 74.7956 42.7209 75.0071 42.5088 75.2743ZM51.1506 79.5487C54.1205 84.1905 58.486 87.7859 63.5773 89.7673L64.6603 90.1903V93.3516V96.5018L60.6744 94.487C54.3103 91.2589 48.7166 88.2646 46.8967 87.0958C46.4947 86.8398 45.8248 86.3055 45.4117 85.9159C44.6637 85.2146 43.67 84.0347 43.67 83.8343C43.67 83.7786 44.1724 83.4224 44.7976 83.0328C46.5505 81.9531 48.0578 80.7843 49.2302 79.5932C49.8219 79.0033 50.3467 78.5024 50.3802 78.4912C50.4248 78.4801 50.7709 78.9588 51.1506 79.5487ZM90.6526 81.7193C91.1104 82.5208 92.3162 83.9901 93.0977 84.7026C95.2973 86.7173 98.7249 88.6542 102.063 89.7673C102.588 89.9454 103.035 90.1013 103.057 90.1235C103.18 90.2126 101.282 93.0734 99.8861 94.8878C96.9385 98.717 92.6846 102.88 86.7672 107.756C84.8802 109.303 77.288 115.292 69.5729 121.314L65.8326 124.23L65.7991 111.017C65.788 103.737 65.8103 97.7597 65.855 97.7151C65.9108 97.6818 66.871 97.2254 68.0098 96.7245C72.7103 94.6318 78.7841 91.5038 81.6535 89.7005C85.5502 87.2516 89.0002 83.9345 90.072 81.608C90.1837 81.352 90.2953 81.1405 90.3065 81.1405C90.3065 81.1405 90.474 81.4077 90.6526 81.7193ZM33.119 88.3982C33.5321 90.9695 34.6262 93.1958 36.5801 95.4221C38.2884 97.3701 40.3428 98.8839 43.5806 100.576C45.9588 101.823 46.7627 102.268 48.3593 103.27C52.1331 105.618 54.9913 108.056 56.2642 110.004C57.1685 111.396 57.9836 114 58.5083 117.151C58.7986 118.909 58.888 119.655 58.8098 119.655C58.754 119.655 47.3209 110.705 44.3957 108.368C36.1447 101.778 31.2321 96.8135 28.0165 91.8266C27.1456 90.4797 26.9893 90.1681 27.168 90.1013C27.2461 90.0679 28.5748 89.567 30.1044 88.9881C31.6452 88.4093 32.9292 87.9418 32.9738 87.9307C33.0073 87.9307 33.0743 88.1422 33.119 88.3982Z" fill="black"/>
<path d="M83.9108 8.16746C83.0399 8.35669 82.0574 8.8576 81.3875 9.44756L80.8516 9.91508V10.8501V11.7852H82.1244H83.4084L83.4419 11.2731C83.4865 10.6498 83.7656 10.3826 84.6142 10.1711L85.1501 10.0375L85.1836 9.01344L85.2171 8.00048L84.9045 8.01162C84.737 8.01162 84.2904 8.08954 83.9108 8.16746Z" fill="black"/>
<path d="M85.4515 9.02179L85.485 10.057L85.8422 10.1349C86.032 10.1683 86.4228 10.3353 86.702 10.5023C87.1709 10.7806 87.2937 10.8028 88.2986 10.7694L89.3927 10.736L89.4262 10.0904C89.4709 9.31121 89.3927 9.21103 88.5554 8.78803C87.8073 8.40957 86.9476 8.16468 86.0655 8.05336L85.418 7.98657L85.4515 9.02179Z" fill="black"/>
<path d="M25.8047 11.9073V15.7031L27.0663 15.6697L28.3168 15.6363L28.3503 11.8739L28.3727 8.12265H27.0887H25.8047V11.9073Z" fill="black"/>
<path d="M28.5977 9.11927V10.1211H31.3331H34.0685V9.11927V8.11744H31.3331H28.5977V9.11927Z" fill="black"/>
<path d="M34.4023 9.09547V10.075L35.3737 11.7113L36.3451 13.3477H37.5509H38.7567V12.9247C38.7567 12.6019 38.4888 12.0564 37.4951 10.3422L36.2334 8.17156L35.3179 8.13817L34.4023 8.10477V9.09547Z" fill="black"/>
<path d="M40.2174 10.2855C39.0897 12.2557 38.9781 12.5006 38.9781 13.0126V13.5803H37.0242H35.0703V14.6378V15.6953H37.5601H40.0499L41.6354 12.9125L43.2208 10.1296V9.12779V8.12597H42.3388H41.4456L40.2174 10.2855Z" fill="black"/>
<path d="M43.5586 9.11927V10.1211H46.9081H50.2576V9.11927V8.11744H46.9081H43.5586V9.11927Z" fill="black"/>
<path d="M50.5898 9.12886V10.1418L51.55 11.7447L52.5214 13.3477H53.7272H54.9442V12.9469C54.9442 12.6464 54.6428 12.0342 53.6491 10.3311L52.3539 8.1159H51.4719H50.5898V9.12886Z" fill="black"/>
<path d="M57.5477 8.25955C57.4807 8.33747 56.9224 9.3059 56.2972 10.4079C55.27 12.2446 55.1695 12.4672 55.1695 13.0015V13.5803H53.2156H51.2617V14.6378V15.6953H53.7515L56.2302 15.6842L57.8268 12.8902L59.4122 10.0851V9.10553V8.12597H58.5302C57.9608 8.12597 57.6146 8.17049 57.5477 8.25955Z" fill="black"/>
<path d="M59.75 11.9106V15.6953H61.034H62.318V11.9106V8.12597H61.034H59.75V11.9106Z" fill="black"/>
<path d="M62.5391 9.11213V10.1028L63.8342 10.1473C65.0959 10.1807 65.1405 10.1919 65.375 10.4924C65.6095 10.7818 65.643 10.793 66.8153 10.793H68.0211L67.9876 9.98038L67.9541 9.17892L67.2619 8.81158C66.3352 8.3218 65.3303 8.12144 63.8007 8.12144H62.5391V9.11213Z" fill="black"/>
<path d="M68.3438 9.11927V10.1211H72.5865H76.8292V9.11927V8.11744H72.5865H68.3438V9.11927Z" fill="black"/>
<path d="M89.7812 9.11773V10.1084L90.708 10.1418L91.6235 10.1752L91.657 11.7559L91.6905 13.3477H92.9633H94.2473V11.7336V10.1196H95.1963H96.1453V9.11773V8.1159H92.9633H89.7812V9.11773Z" fill="black"/>
<path d="M96.4805 10.0434V11.9691L96.7931 12.2474C97.6193 13.0043 98.3897 13.2381 100.31 13.316L101.84 13.3828V12.381V11.368L100.813 11.3235C100.131 11.2901 99.6513 11.2122 99.4169 11.0897L99.0484 10.8894V9.50909V8.11767H97.7645H96.4805V10.0434Z" fill="black"/>
<path d="M102.085 11.8739L102.118 15.6363L103.38 15.6697L104.63 15.7031V11.9073V8.12265H103.346H102.062L102.085 11.8739Z" fill="black"/>
<path d="M28.5977 11.2641V12.2325H29.837C31.0875 12.2325 31.5006 12.3327 31.5006 12.6221C31.5006 12.7557 31.735 12.7891 32.7846 12.7891H34.0685V12.1434V11.4978L33.488 11.1527C32.6617 10.6518 31.7909 10.4515 30.0826 10.3736L28.5977 10.3068V11.2641Z" fill="black"/>
<path d="M43.5586 13.0238V15.6953H44.8426H46.1266V13.0238V10.3522H44.8426H43.5586V13.0238Z" fill="black"/>
<path d="M71.3594 13.0238V15.6953H72.6434H73.9273V13.0238V10.3522H72.6434H71.3594V13.0238Z" fill="black"/>
<path d="M65.442 11.2882C65.442 11.7001 65.1405 11.7891 63.7784 11.7891H62.5391V12.8578V13.9375L64.0798 13.8707C65.7434 13.8039 66.6031 13.6036 67.5075 13.0804L68.0099 12.7798V11.9005V11.0099H66.726H65.442V11.2882Z" fill="black"/>
<path d="M80.8516 12.9481V13.8831L81.3875 14.3395C81.6778 14.5955 82.2137 14.9517 82.5821 15.1298C83.2744 15.4749 84.7928 15.8533 85.0608 15.7532C85.1836 15.7086 85.2059 15.4637 85.1836 14.7291L85.1501 13.7606L84.6142 13.6271C83.7656 13.4156 83.4865 13.1484 83.4419 12.5251L83.4084 12.013H82.1244H80.8516V12.9481Z" fill="black"/>
<path d="M31.5006 13.1847C31.5006 13.4741 31.0875 13.5743 29.837 13.5743H28.5977V14.6429V15.7227L30.1384 15.6559C31.802 15.5891 32.1816 15.5112 33.3205 14.9991L34.0685 14.654V13.8415V13.0177H32.7846C31.735 13.0177 31.5006 13.0511 31.5006 13.1847Z" fill="black"/>
<path d="M86.6651 13.3001C86.453 13.4448 86.0845 13.6007 85.8501 13.6341L85.4258 13.712V14.7583V15.8047L86.0175 15.7379C87.1899 15.5932 88.9651 14.9476 89.3224 14.5357C89.4005 14.4244 89.4452 14.1127 89.4229 13.712L89.3894 13.0664L88.217 13.0441C87.134 13.0218 87.0112 13.0441 86.6651 13.3001Z" fill="black"/>
<path d="M89.7812 14.6378V15.6953H92.9633H96.1453V14.6378V13.5803H92.9633H89.7812V14.6378Z" fill="black"/>
<path d="M79.1069 64.3681C78.8612 64.5796 78.8166 64.6909 78.8836 64.9358C78.984 65.3254 79.4083 65.5257 79.7879 65.3588C79.9331 65.292 80.1005 65.1027 80.134 64.9358C80.201 64.6909 80.1564 64.5796 79.9107 64.3681C79.7433 64.2234 79.5646 64.112 79.5088 64.112C79.453 64.112 79.2743 64.2234 79.1069 64.3681Z" fill="black"/>
<path d="M76.2683 64.7461C75.6095 64.9798 75.7547 66.0039 76.4469 66.0039C77.0498 66.0039 77.3066 65.2581 76.8265 64.8685C76.5697 64.657 76.5362 64.6459 76.2683 64.7461Z" fill="black"/>
<path d="M72.9458 65.471C72.756 65.6602 72.7784 66.1834 72.9905 66.3838C73.5153 66.9181 74.2857 66.2279 73.9284 65.5489C73.7944 65.304 73.1692 65.2484 72.9458 65.471Z" fill="black"/>
<path d="M69.8278 66.1826C69.6603 66.4498 69.6603 66.5054 69.8054 66.7726C70.1181 67.318 71.0224 67.1288 71.0224 66.5054C71.0224 65.9043 70.1627 65.6706 69.8278 66.1826Z" fill="black"/>
<path d="M79.0631 67.34C78.9403 67.4624 78.8398 67.6628 78.8398 67.7852C78.8398 67.9077 78.9403 68.1081 79.0631 68.2305C79.186 68.3529 79.3869 68.4531 79.5097 68.4531C79.6326 68.4531 79.8335 68.3529 79.9564 68.2305C80.0792 68.1081 80.1797 67.9077 80.1797 67.7852C80.1797 67.6628 80.0792 67.4624 79.9564 67.34C79.8335 67.2175 79.6326 67.1174 79.5097 67.1174C79.3869 67.1174 79.186 67.2175 79.0631 67.34Z" fill="black"/>
<path d="M76.0135 67.9876C75.6227 68.4218 75.9018 69.0117 76.4824 69.0117C76.862 69.0117 77.0853 68.778 77.0853 68.3772C77.0853 67.8429 76.3707 67.5869 76.0135 67.9876Z" fill="black"/>
<path d="M73.0554 68.5151C72.6981 68.76 72.7204 69.2832 73.1 69.5281C73.368 69.6951 73.4238 69.6951 73.6918 69.5504C74.0937 69.3277 74.1495 68.76 73.7923 68.5151C73.4796 68.2925 73.368 68.2925 73.0554 68.5151Z" fill="black"/>
<path d="M69.9531 69.1769C69.7522 69.3884 69.6963 69.522 69.741 69.7112C69.8303 70.0117 70.1094 70.2344 70.3774 70.2344C70.6454 70.2344 71.025 69.8448 71.025 69.5665C71.025 69.2993 70.6454 68.8986 70.4109 68.8986C70.3104 68.8986 70.1094 69.0211 69.9531 69.1769Z" fill="black"/>
<path d="M79.0631 70.3478C78.9403 70.4702 78.8398 70.6706 78.8398 70.7931C78.8398 70.9155 78.9403 71.1159 79.0631 71.2383C79.186 71.3608 79.3869 71.4609 79.5097 71.4609C79.6326 71.4609 79.8335 71.3608 79.9564 71.2383C80.0792 71.1159 80.1797 70.9155 80.1797 70.7931C80.1797 70.6706 80.0792 70.4702 79.9564 70.3478C79.8335 70.2254 79.6326 70.1252 79.5097 70.1252C79.3869 70.1252 79.186 70.2254 79.0631 70.3478Z" fill="black"/>
<path d="M76.0514 71.0119C75.9286 71.1343 75.8281 71.3347 75.8281 71.4571C75.8281 71.7354 76.2077 72.125 76.4757 72.125C77.0116 72.125 77.2573 71.279 76.8107 70.9673C76.4757 70.7336 76.3194 70.7447 76.0514 71.0119Z" fill="black"/>
<path d="M73.0034 71.6588C72.7689 71.9148 72.7577 72.3935 72.981 72.5716C73.2267 72.7719 73.7179 72.7385 73.8966 72.5048C74.3655 71.8703 73.5281 71.08 73.0034 71.6588Z" fill="black"/>
<path d="M69.9982 72.1478C69.6632 72.4149 69.652 72.7711 69.9647 73.0717C70.1656 73.2832 70.3108 73.3388 70.5006 73.2943C71.0253 73.1273 71.1817 72.6153 70.802 72.2368C70.5452 71.9808 70.255 71.9474 69.9982 72.1478Z" fill="black"/>
<path d="M79.0506 73.3613C78.7603 73.6507 78.8162 73.9958 79.2069 74.2741L79.5084 74.5078L79.821 74.2741C79.9885 74.1516 80.1336 73.9512 80.156 73.8177C80.2006 73.5394 79.821 73.1275 79.5084 73.1275C79.3856 73.1275 79.1846 73.2277 79.0506 73.3613Z" fill="black"/>
<path d="M76.0155 74.1057C75.4907 74.6845 76.2499 75.4414 76.8752 74.9851C77.1097 74.807 77.1431 74.3172 76.9422 74.0723C76.7524 73.8385 76.2388 73.8608 76.0155 74.1057Z" fill="black"/>
<path d="M72.9458 74.7093C72.756 74.8985 72.7784 75.4217 72.9905 75.622C73.5153 76.1564 74.2857 75.4662 73.9284 74.7872C73.7944 74.5423 73.1692 74.4866 72.9458 74.7093Z" fill="black"/>
<path d="M69.8278 75.417C69.6603 75.6842 69.6603 75.7398 69.8054 76.007C70.1181 76.5524 71.0224 76.3632 71.0224 75.7398C71.0224 75.1387 70.1627 74.905 69.8278 75.417Z" fill="black"/>
<path d="M76.0694 77.0922C75.4218 77.5375 76.1252 78.5171 76.7839 78.0829C77.2528 77.7824 77.0519 76.9141 76.516 76.9141C76.4043 76.9141 76.2033 76.9921 76.0694 77.0922Z" fill="black"/>
<path d="M73.0567 77.7525C72.6101 78.053 72.8557 78.9102 73.3805 78.9102C73.7043 78.9102 74.0392 78.5651 74.0392 78.2423C74.0392 77.9306 73.7043 77.5744 73.4251 77.5744C73.3581 77.5744 73.1907 77.6523 73.0567 77.7525Z" fill="black"/>
<path d="M69.9588 78.404C69.8025 78.5599 69.6797 78.7602 69.6797 78.8604C69.6797 79.0942 70.0816 79.4727 70.3496 79.4727C70.6287 79.4727 71.0195 79.0942 71.0195 78.827C71.0195 78.5599 70.7962 78.2816 70.4947 78.1925C70.3049 78.148 70.171 78.2037 69.9588 78.404Z" fill="black"/>
<path d="M73.0016 80.8919C72.7225 81.2036 72.7671 81.6599 73.0798 81.8714C73.6939 82.261 74.3526 81.4373 73.8613 80.903C73.6157 80.6359 73.2361 80.6359 73.0016 80.8919Z" fill="black"/>
<path d="M69.9997 81.3877C69.6648 81.6548 69.6536 82.011 69.9551 82.3116C70.1114 82.4674 70.3123 82.5898 70.4128 82.5898C70.6473 82.5898 71.0269 82.1891 71.0269 81.922C71.0269 81.6437 70.6473 81.2541 70.3793 81.2541C70.2677 81.2541 70.1002 81.3209 69.9997 81.3877Z" fill="black"/>
</svg>
