<svg width="67" height="20" fill="currentColor" xmlns="http://www.w3.org/2000/svg"><path fill-rule="evenodd" clip-rule="evenodd" d="M67.0009 1H37.5207v19h29.4802V1ZM46.8304 6.23151v8.26909c0 .0044 0 .0087.0001.0131l.0003.0133c.0005.0175.0009.0348-.0004.0516-.0042.0478.0093.0761.0671.0683.0138-.0013.0276-.0009.0413-.0004.0038.0001.0075.0002.0112.0003.0032.0001.0063.0001.0095.0001.2441 0 .4883.0001.7325.0002.4888.0002.9779.0005 1.467-.0002.0083 0 .0161.0001.0234.0001.0062.0001.0121.0001.0177.0002.0469.0006.0698.0008.0807-.0098.0104-.0102.0099-.0301.009-.0691-.0003-.0131-.0006-.0284-.0006-.0462V6.24321l-.0002-.00894-.0003-.01057c-.0005-.013-.0009-.02601.0005-.03901.0051-.04877-.0124-.07413-.0682-.06827-.011.00129-.0224.00086-.034.00043-.0059-.00021-.0118-.00043-.0177-.00043-.2464 0-.493-.00011-.7396-.00022h-.0009c-.4932-.00022-.9867-.00043-1.4796.00022-.0146 0-.0275-.00019-.0388-.00035-.0406-.00057-.061-.00086-.0711.00864-.0103.00961-.01.02922-.0093.06867.0002.01107.0004.02371.0004.03813Zm12.2465-.11481h-3.6692c-1.2216 0-2.4432 0-3.6638-.00097-.0046 0-.009.00002-.0135.00006-.0048.00004-.0095.0001-.0143.00015-.0182.00022-.0363.00043-.0549-.00021-.0413-.00196-.0558.01658-.0527.05266.0007.01102.0005.0216.0003.03232a.445562.445562 0 0 0-.0003.01645V8.21767c-.0003.04251-.0004.06344.0106.07365.0107.00989.0319.00971.0735.00936.0043-.00003.0088-.00007.0136-.0001.0047-.00003.0097-.00005.0149-.00005h2.3039c.0751 0 .1123 0 .1307.01758.018.01723.0181.05136.0181.11897v6.10482c0 .0117-.0002.0221-.0003.0313-.0006.0351-.0009.0534.0087.0629.0104.0105.0327.0104.0793.0102l.0228-.0001h2.2109c.0692 0 .1036 0 .1206-.0162.0168-.016.0168-.0477.0168-.1106V8.41465c0-.01314-.0002-.02476-.0004-.03504-.0006-.03774-.0009-.05762.0093-.06776.0111-.01097.0345-.01081.0833-.01048.0093.00007.0195.00013.0307.00013h2.3452c.1012 0 .1012.00001.1023-.0946V6.23667c0-.01353.0001-.02556.0003-.03624.0005-.04292.0008-.06423-.0103-.07465-.011-.01026-.033-.00997-.0767-.0094-.0115.00015-.0246.00032-.0394.00032Z" /><path d="M19.2582 9.43723c.4181-.72859 1.0862-1.07777 1.7347-1.09143 1.3155-.00292 2.1755.69641 2.41 1.6659.1421.5843.0789 1.1519-.2251 1.6825-.3579.6233-.9161.9861-1.6672 1.0671-.7263.079-1.3602-.1151-1.8779-.6087-.3319-.316-.5322-.7013-.6172-1.1363-.1079-.551-.0415-1.08456.2427-1.57907Z" /><path fill-rule="evenodd" clip-rule="evenodd" d="M29.48 1H0v19h29.48l8.04-9.5L29.48 1ZM13.0342 9.1116c.0447.03426.0897.06874.1353.10329.0302-.01739.0489-.0412.0665-.06363.0041-.00522.0082-.0104.0123-.01537.1598-.17947.3185-.35991.4772-.54035.3185-.35991.636-.71982.9535-1.0807.0633-.07218.0612-.10534-.0114-.16386-.0571-.04682-.1152-.09266-.1743-.1385-.5042-.39014-1.0582-.69446-1.6859-.871-.4192-.11704-.8476-.18141-1.2834-.2097-.5685-.03609-1.1319-.01853-1.69001.10339-1.9546.42526-3.41328 1.95462-3.58447 3.91513-.04564.5286-.00207 1.0524.1411 1.5664.32577 1.1636 1.03332 2.0551 2.1569 2.6422.61211.32 1.27506.4887 1.97228.5414.5903.0448 1.1744.0107 1.7512-.1122.9752-.2078 1.8374-.6272 2.6041-1.227.0612-.0478.0861-.0956.0861-.1717-.0025-.9331-.0024-1.8668-.0022-2.8002l.0001-.70033c0-.01213-.0009-.02444-.0018-.03674-.002-.02727-.004-.05446.0039-.07933.0091-.02888-.0074-.04544-.0235-.06158-.0132-.01331-.0261-.02632-.0243-.04571.0042-.03219-.0186-.03706-.0456-.03706h-4.1177c-.0079 0-.016.00021-.024.00042-.0163.00044-.0327.00088-.0486-.00042-.0415-.00391-.055.0156-.0519.05169.0014.01499.0009.03042.0004.0457-.0002.00757-.0004.01514-.0004.02257 0 .20483-.0001.40969-.0003.61449-.0002.4096-.0004.8193.0003 1.2289 0 .017-.0004.0316-.0006.0441-.0009.0375-.0013.0568.0087.0666.0105.0103.0328.0101.0785.0096.0115-.0001.0244-.0003.0389-.0003h1.6288c.0144 0 .0271-.0001.0384-.0003.0451-.0005.0671-.0007.0775.0095.0099.0097.0096.0287.009.0656-.0002.013-.0005.0283-.0004.0462.0007.089.0005.1776.0003.2664-.0001.0444-.0003.0889-.0003.1335v.0032c0 .1831 0 .1845-.1753.264-.5135.2321-1.0561.2985-1.6164.2321-.6225-.0731-1.12044-.3511-1.48563-.8319-.23758-.3131-.36727-.6662-.41603-1.0466-.06121-.4857.00104-.95293.23447-1.39379.28115-.52962.70652-.91001 1.31759-1.0846.4285-.1229.8621-.09071 1.2916-.00195.3891.07998.7284.25944 1.0406.48475.1145.08176.2258.16707.3389.25369Zm11.5234-1.76944c-.9596-.82516-2.1029-1.21822-3.2846-1.227-.5457.00097-.9535.04291-1.3861.14923-1.2553.30919-2.2378.97243-2.8904 2.03167-.6702 1.08655-.8061 2.25214-.4316 3.45084.4192 1.3401 1.3124 2.3155 2.6944 2.8588 1.0613.4164 2.161.472 3.2701.197 1.2885-.319 2.2762-1.0241 2.9235-2.1244.5458-.9275.692-1.9224.4887-2.96114-.1826-.93342-.6391-1.73322-1.384-2.375Z" /></svg>