<svg width="54" height="54" fill="none" xmlns="http://www.w3.org/2000/svg"><path d="M43.9416 2.00935v-.00004l-.0029-.00165c-4.1224-2.38521-8.9909-.9359-11.3607 2.97847-2.3742-3.91519-7.3476-5.363204-11.4692-2.97847l-.0001-.00004-.0032.00201c-4.8575 2.97886-5.52 9.70547-1.8766 13.56887l12.2612 13.5549-.0001.0002.0053.0053c.247.2469.6116.3693.8657.3693.178 0 .3602-.0295.5168-.0921.1477-.059.2868-.1536.3659-.2953.5403-.5776 1.7282-1.9385 3.1619-3.5809.7648-.8763 1.5996-1.8327 2.4433-2.793 2.4429-2.7805 4.9571-5.5898 6.0896-6.6146 4.5242-3.7523 4.0836-11.03237-.9969-14.12295ZM33.1959 25.8153c-.2308.2659-.439.5057-.6202.7142L21.1865 13.9661l-.0011-.0012c-2.6508-2.861-2.1184-7.73751 1.2698-9.85542 3.0648-1.79411 6.7686-.42423 8.2524 2.54153.3496.69873 1.051 1.16738 1.8704 1.16738.8194 0 1.5208-.46865 1.8704-1.16738 1.4863-2.97076 5.191-4.44058 8.251-2.54242l.0003.00018c3.5966 2.2201 3.8178 7.52203.8456 10.28123-1.0932.9835-3.3235 3.4304-5.5452 5.9351-1.8039 2.0337-3.6079 4.1119-4.8042 5.4902ZM11.5675 50.831v-.5375c1.2771.4909 2.7317.6875 4.0821.6875h17.471c2.5216 0 5.0394-.6572 7.335-1.7497v.0001l.0042-.0022 10.3073-5.3132c.0003-.0001.0005-.0002.0007-.0003 2.246-1.1228 3.0341-3.8185 1.8006-5.9529-1.1235-2.2401-3.8129-3.0245-5.944-1.91l-8.9936 3.2488-.0018.0006c-.5981.1991-1.3831.3989-2.1881.6003v-.6755c0-3.1195-2.5631-5.6809-5.6843-5.6809h-4.2321c-.344 0-.6867.0034-1.0272.0068-1.0102.0102-2.0007.0201-2.948-.0605-1.2627-.1074-2.4288-.3747-3.4307-1.0066-.0257-.0172-.0636-.0445-.1134-.0804-.5778-.4166-2.765-1.9932-6.2207-2.4213v-1.9273c0-1.2759-1.0439-2.319-2.32029-2.319h-6.2939C1.89388 25.7378.85 26.7809.85 28.0568V50.831c0 1.2759 1.04388 2.319 2.32031 2.319h6.07687c1.27642 0 2.32032-1.0431 2.32032-2.319Zm38.0889-9.2439-.0017.0009-10.3073 5.3131c-.0002.0001-.0004.0003-.0006.0004-1.9337.9661-4.0809 1.5021-6.2262 1.5021h-17.471c-1.4647 0-2.8247-.3067-4.0821-.9193V32.3521c2.3549.3736 3.8717 1.3919 4.6066 1.8853.1652.1109.2909.1953.3777.2398 2.3831 1.5212 5.0175 1.4808 7.5628 1.4417.4003-.0062.7983-.0123 1.1929-.0123h4.2321c1.762 0 3.214 1.4512 3.214 3.2119v1.1689c-2.5639.3158-5.3169.5248-7.2291.5248-.3596 0-.6709.1204-.8928.3421-.2218.2217-.3424.5329-.3424.8924 0 .3594.1206.6706.3424.8923.2219.2217.5332.3422.8928.3422 1.4165 0 3.782-.1088 6.2013-.3669 2.4158-.2577 4.9-.6657 6.5462-1.2689.0002 0 .0003-.0001.0004-.0001l9.0964-3.2467c.0028-.0004.0058-.0009.0089-.0014.02-.0033.049-.0102.0797-.0256.0314-.0157.0673-.0415.0951-.0832.0089-.0133.0163-.0274.0224-.0421 1.0167-.4694 2.286-.1445 2.774.8309l.0067.0133.0091.0117c.3507.4506.4214.9424.2869 1.3823-.1356.4434-.4841.8472-.9952 1.1026ZM3.32031 50.681V28.2068h5.77687V50.681H3.32031Z" fill="#F2600C" stroke="#F2600C" stroke-width=".3"/></svg>