<svg width="64" height="64" fill="none" xmlns="http://www.w3.org/2000/svg"><path d="M30 3c-5.7357 0-11.3425 1.70082-16.1115 4.88738C9.11945 11.0739 5.40245 15.6031 3.20751 20.9022c-2.19494 5.299-2.769241 11.13-1.65027 16.7554 1.11897 5.6255 3.88095 10.7928 7.93667 14.8485 4.05569 4.0557 9.22299 6.8177 14.84849 7.9367 5.6254 1.1189 11.4564.5446 16.7554-1.6503 5.2991-2.195 9.8283-5.9119 13.0148-10.681C57.2992 43.3425 59 37.7356 59 32c0-7.6913-3.0554-15.0675-8.4939-20.5061C45.0675 6.05535 37.6913 3 30 3Zm0 53.8571c-4.9163 0-9.7221-1.4578-13.8099-4.1892-4.0877-2.7313-7.27372-6.6134-9.15509-11.1555-1.88138-4.542-2.37364-9.54-1.41452-14.3618.95912-4.8218 3.32653-9.2509 6.80291-12.7273 3.4763-3.4763 7.9054-5.8437 12.7272-6.80282 4.8218-.95912 9.8198-.46687 14.3618 1.41451 4.5421 1.88141 8.4242 5.06741 11.1556 9.15511 2.7313 4.0877 4.1891 8.8936 4.1891 13.8099 0 6.5925-2.6188 12.915-7.2804 17.5766C42.915 54.2383 36.5925 56.8571 30 56.8571Zm2.0714-26.9285V46.5c0 .5494-.2182 1.0762-.6067 1.4647-.3884.3885-.9153.6067-1.4647.6067-.5494 0-1.0762-.2182-1.4647-.6067-.3885-.3885-.6067-.9153-.6067-1.4647V32c-.5494 0-1.0763-.2182-1.4647-.6067-.3885-.3885-.6067-.9154-.6067-1.4647 0-.5494.2182-1.0763.6067-1.4648.3884-.3884.9153-.6067 1.4647-.6067H30c.5494 0 1.0763.2183 1.4647.6067.3885.3885.6067.9154.6067 1.4648Zm0-9.3215c0 .6146-.1822 1.2153-.5236 1.7263-.3414.5109-.8267.9092-1.3945 1.1444-.5677.2351-1.1925.2967-1.7952.1768s-1.1563-.4158-1.5909-.8504c-.4345-.4345-.7305-.9882-.8503-1.5909-.1199-.6027-.0584-1.2275.1768-1.7952.2351-.5678.6334-1.053 1.1444-1.3945.5109-.3414 1.1117-.5236 1.7262-.5236.8241 0 1.6144.3274 2.1971.9101.5827.5827.91 1.373.91 2.197Z" fill="#849080" opacity=".56"/></svg>