<svg width="24" height="24" fill="none" xmlns="http://www.w3.org/2000/svg"><path d="m7.56476 11.0775-5.55484 7.6784c-.02167-.21 0-12.17989-.00722-12.37573-.0018-.11886.01535-.23683.05057-.35031 1.17021 1.07242 3.49618 3.20295 5.5116 5.04734l-.00011.0003Zm4.79644 1.7802c1.7336-1.5782 6.1572-5.64449 8.5383-7.82158-.0966-.02681-.1959-.03842-.2962-.03574H3.39679c-.10022-.00268-.19954.00893-.29615.03574 1.9648 1.80166 6.85507 6.27728 8.53836 7.82158.204.1859.5181.1859.7222 0Zm.9824 1.051c-1.9142 1.4969-3.1169-.5201-4.70976-1.8517l-5.68497 7.8644c.14356.0518.29525.0786.44786.0786H20.6033c.1526 0 .3043-.0268.4478-.0786l-5.6849-7.8644c-.838.765-1.5603 1.4227-2.0226 1.8517Zm8.6032-7.88589c-1.6496 1.51301-3.4871 3.19769-5.5116 5.05469l5.5549 7.6784c.0216-.21 0-12.17989.0072-12.37573.0018-.12064-.0152-.24118-.0505-.35736Z" fill="#1A341B"/></svg>