<svg width="100" height="100" fill="none" xmlns="http://www.w3.org/2000/svg"><path d="M49.999 100C77.3044 100 100 77.353 100 50c0-27.3049-22.7458-50-50.0512-50C22.5973 0 0 22.6951 0 50c0 27.353 22.6454 50 49.999 50Zm.002-8.3326C26.8599 91.6674 8.37673 73.1365 8.37673 50c0-23.0904 18.43297-41.66736 41.57207-41.66736C73.0376 8.33264 91.6149 26.9117 91.6651 50c.0481 23.1385-18.5794 41.6674-41.6682 41.6674m-.0481-32.7951c2.3509 0 3.6748-1.324 3.723-3.8715l.7362-25.8826c.0502-2.5014-1.9117-4.3629-4.5094-4.3629-2.648 0-4.5095 1.8133-4.4614 4.3127l.638 25.9328c.0481 2.4994 1.4222 3.8715 3.8736 3.8715Zm0 15.9311c2.7922 0 5.2916-2.2547 5.2916-5.097 0-2.8926-2.4492-5.0992-5.2916-5.0992-2.8927 0-5.2959 2.2547-5.2959 5.0992 0 2.7942 2.4513 5.097 5.2959 5.097Z" fill="red"/></svg>