<svg viewBox='0 0 24 24' fill="currentColor" xmlns="http://www.w3.org/2000/svg">
  <path d="M2.515 6.745a3.197 3.197 0 0 1 .994-2.132c.283-.27.562-.552.845-.84h.002l.155-.157c.131-.132.264-.266.398-.398.468-.46 1.035-.718 1.632-.718.598 0 1.166.256 1.636.713l.771.771.377.378c.372.366.744.74 1.112 1.111.474.479.745 1.052.746 1.66.001.61-.27 1.182-.742 1.66-.37.373-.744.75-1.123 1.123.232.466.545.938.979 1.473 1.058 1.302 2.14 2.286 3.308 3.019.134.083.282.155.458.241l.003.002.024.011c.385-.39.761-.762 1.136-1.132.465-.46 1.037-.715 1.634-.715.598 0 1.17.254 1.634.716h.001l.002.002 2.275 2.27c.468.472.73 1.047.728 1.652-.002.605-.267 1.18-.736 1.653l-.003.003c-.134.134-.27.265-.402.394l-.026.025c-.294.285-.573.556-.829.84-.68.762-1.56 1.13-2.627 1.13-1.416 0-2.806-.488-4.064-1.101a19.77 19.77 0 0 1-6.54-5.115C4.818 13.546 3.768 11.8 3.078 9.949c-.45-1.203-.634-2.2-.562-3.203v-.001Z" />
</svg>
