<svg width="24" height="24" fill="none" xmlns="http://www.w3.org/2000/svg"><path d="M19.9643 6.686c-1.0312-.21362-1.965-.74065-2.6653-1.50425-.7003-.76359-1.1304-1.72384-1.2276-2.74075V2h-3.5573v13.672c-.0022.6053-.2002 1.1947-.5661 1.6854-.366.4906-.8815.858-1.4741 1.0503-.59262.1923-1.23257.2-1.82993.022-.59735-.1781-1.12209-.5329-1.50046-1.0147-.38425-.4898-.59741-1.0854-.60855-1.7005-.01115-.615.18029-1.2175.54656-1.7201.36626-.5026.88831-.8791 1.49044-1.075.60212-.1959 1.25303-.2009 1.85834-.0144v-3.5c-1.34978-.1807-2.72411.05169-3.93078.6647-1.20666.6129-2.18531 1.5758-2.79904 2.754-.61374 1.1781-.83188 2.5126-.6239 3.8167.20798 1.3041.83168 2.5127 1.78384 3.4566.90803.8997 2.07232 1.5171 3.34425 1.7731 1.27192.2561 2.59383.1393 3.79683-.3355 1.2031-.4747 2.2328-1.2859 2.9577-2.3299.7249-1.0441 1.1121-2.2736 1.1122-3.5317V8.687c1.4376.99534 3.1614 1.529 4.9286 1.526V6.79c-.348.00042-.6952-.03444-1.0357-.104Z"/></svg>