<svg fill="none" xmlns="http://www.w3.org/2000/svg"><path d="M24.5607 7.18652c-.1186-.42284-.3526-.80876-.6784-1.11912-.3259-.31036-.7322-.53427-1.1783-.6493C21.0669 5 14.5 5 14.5 5s-6.56687 0-8.20487.4181c-.4459.11523-.852.33922-1.17769.64956-.32569.31034-.55955.69616-.67819 1.11886C4 8.7463 4 12 4 12s0 3.2537.43925 4.8135c.11864.4228.3526.8087.67847 1.1191.32586.3104.73219.5343 1.17828.6493C7.93313 19 14.5 19 14.5 19s6.5669 0 8.2049-.4181c.4461-.1149.8525-.3388 1.1784-.6492.3258-.3104.5598-.6963.6783-1.1192C25 15.2537 25 12 25 12s0-3.2537-.4393-4.81348ZM12.3519 14.954V9.04601L17.8407 12l-5.4888 2.954Z" /></svg>