<svg width="24" height="24" fill="none" xmlns="http://www.w3.org/2000/svg"><path d="M12 4.62651h3.6867c.8675 0 1.3013.21686 1.6266.3253.4337.21687.759.3253 1.0843.6506.3253.3253.5422.6506.6506 1.08434.1084.3253.2169.75903.3253 1.6265v7.37345c0 .8675-.2169 1.3013-.3253 1.6266-.2169.4337-.3253.759-.6506 1.0843-.3253.3253-.6506.5422-1.0843.6506-.3253.1084-.7591.2169-1.6266.3253H8.31325c-.86747 0-1.3012-.2169-1.6265-.3253-.43374-.2169-.75904-.3253-1.08434-.6506-.3253-.3253-.54217-.6506-.6506-1.0843-.10844-.3253-.21687-.7591-.3253-1.6266V8.31325c0-.86747.21686-1.3012.3253-1.6265.21687-.43374.3253-.75904.6506-1.08434.3253-.3253.6506-.54217 1.08434-.6506.3253-.10844.75903-.21687 1.6265-.3253H12ZM12 3H8.31325c-.9759 0-1.6265.21687-2.16867.43374-.54217.21686-1.08434.54216-1.62651 1.08433-.54217.54217-.75903.97591-1.08433 1.62651C3.21687 6.68675 3.10843 7.33735 3 8.31325v7.37345c0 .976.21687 1.6266.43374 2.1687.21686.5422.54216 1.0844 1.08433 1.6265.54217.5422.97591.7591 1.62651 1.0844.54217.2168 1.19277.3253 2.16867.4337h7.37345c.976 0 1.6266-.2169 2.1687-.4337.5422-.2169 1.0844-.5422 1.6265-1.0844.5422-.5421.7591-.9759 1.0844-1.6265.2168-.5421.3253-1.1927.4337-2.1687V8.31325c0-.9759-.2169-1.6265-.4337-2.16867-.2169-.54217-.5422-1.08434-1.0844-1.62651-.5421-.54217-.9759-.75903-1.6265-1.08433-.5421-.21687-1.1927-.32531-2.1687-.43374H12Z" fill="#F3EFE9"/><path d="M12 7.33735c-2.60241 0-4.66265 2.06024-4.66265 4.66265 0 2.6024 2.06024 4.6627 4.66265 4.6627 2.6024 0 4.6627-2.0603 4.6627-4.6627 0-2.60241-2.0603-4.66265-4.6627-4.66265Zm0 7.69875c-1.6265 0-3.03614-1.3012-3.03614-3.0361 0-1.6265 1.30124-3.03614 3.03614-3.03614 1.6265 0 3.0361 1.30124 3.0361 3.03614 0 1.6265-1.4096 3.0361-3.0361 3.0361ZM16.7711 8.31325c.5988 0 1.0843-.48547 1.0843-1.08433 0-.59887-.4855-1.08434-1.0843-1.08434-.5989 0-1.0844.48547-1.0844 1.08434 0 .59886.4855 1.08433 1.0844 1.08433Z" fill="#F3EFE9"/></svg>