<svg width="24" height="20" fill="none" xmlns="http://www.w3.org/2000/svg"><path d="M19.9525 5.98096c.0125.17316.0125.34713.0125.52193C19.965 11.8428 15.8367 18 8.29 18v-.0025c-2.22981.003-4.41338-.626-6.29-1.8119 1.0743.1274 2.16358.0451 3.20554-.2423 1.04197-.2874 2.0162-.7742 2.86696-1.4326-.8563-.016-1.68612-.2951-2.37343-.7983-.68731-.5032-1.19774-1.2054-1.4599-2.0083.61473.1167 1.24846.0931 1.8525-.069-.92856-.1848-1.76361-.6802-2.36356-1.4022-.59995-.72197-.92785-1.62607-.92811-2.55897v-.05088c.57067.31318 1.20948.48656 1.8625.50552-.86878-.57128-1.48382-1.44712-1.71992-2.44924-.2361-1.00212-.0755-2.05518.44909-2.94481 1.0305 1.24832 2.31609 2.26924 3.77329 2.99649 1.4572.72726 3.05344 1.14458 4.68504 1.22487-.2033-.86592-.1112-1.77365.2618-2.58292.373-.80927 1.0064-1.47502 1.8021-1.89437.7957-.41935 1.7095-.56895 2.6002-.42568.8907.14327 1.7087.57143 2.3276 1.21831.9193-.17852 1.8009-.51046 2.6066-.98148-.3062.93592-.9474 1.73035-1.8041 2.23541.8131-.09483 1.6072-.30921 2.3558-.63599-.551.81143-1.2443 1.51975-2.0475 2.0918Z"/></svg>