<svg width="134" height="21" fill="currentColor" xmlns="http://www.w3.org/2000/svg"><path fill-rule="evenodd" clip-rule="evenodd" d="M5.9152 1C.657925 1-1.9769 7.0699 1.73787 10.6234l6.86396 6.5661H.490676v2.831H14.0107c5.2595 0 7.8933-6.0743 4.1741-9.6265l-6.8715-6.56294h8.1337V1H5.9152Zm5.3967 2.83106H5.9152c-2.61785 0-3.92985 3.02249-2.08009 4.79195L10.7043 15.194l-2.09206 1.9955h5.39846c2.619 0 3.9305-3.0247 2.0785-4.7935L9.21702 5.83235l2.09488-2.00129Z" /><path d="M38.1582 4.94376c-.0666-.00163-3.7501-.00244-3.8176-.00244-.6911 0-1.3108.06282-1.8593.18847-.5485.12565-1.0202.31412-1.4151.56542-.3949.24082-.6965.54447-.9049.91095-.2085.36647-.3127.7853-.3127 1.25648 0 .49212.0988.91095.2962 1.25648.2084.33506.4827.61777.8227.84813.351.21985.7404.40835 1.1683.56545.4387.157.8885.2931 1.3492.4083.4607.1152.905.2304 1.3328.3456.4387.1151.8282.246 1.1682.3926.351.1466.6253.3298.8227.5497.2084.2199.3126.4974.3126.8324 0 .2199-.0493.4136-.1481.5812-.0987.1675-.2358.3141-.4113.4397-.1755.1152-.3839.2147-.6253.2984-.2303.0733-.4881.1309-.7733.1728-.2852.0314-.5814.0471-.8885.0471-.0428 0-4.0571-.0004-4.0992-.0012v1.4924c.0424.0006 4.0566.0009 4.0992.0009.9104 0 1.7167-.1099 2.4187-.3298.713-.2199 1.2725-.5707 1.6783-1.0523.4059-.4922.6088-1.1256.6088-1.9005 0-.4921-.1042-.9057-.3126-1.2407-.2084-.3456-.4881-.6335-.8391-.8639-.3401-.2303-.7295-.424-1.1683-.5811-.4278-.15705-.872-.29317-1.3328-.40835-.4497-.12565-.894-.24082-1.3327-.34553-.4278-.11518-.8173-.24083-1.1683-.37695-.34-.13611-.6143-.29841-.8227-.48688-.2084-.19895-.3126-.45024-.3126-.75389 0-.27224.0987-.5026.2962-.69107.2084-.19894.51-.35077.9049-.45547.3949-.11518.8831-.17277 1.4644-.17277.0626 0 3.7406.00101 3.8012.00302V4.94376Z" /><path fill-rule="evenodd" clip-rule="evenodd" d="M46.9764 16.0926c-1.1627 0-2.1719-.2042-3.0275-.6125-.8447-.4084-1.4973-1.0262-1.9581-1.8533-.4497-.8272-.6746-1.8638-.6746-3.1098 0-1.25652.2249-2.29312.6746-3.10983.4608-.82719 1.1134-1.44496 1.9581-1.85332.8556-.40835 1.8648-.61253 3.0275-.61253 1.1847 0 2.1994.20418 3.044.61253.8447.40836 1.4919 1.02613 1.9416 1.85332.4607.81671.6911 1.85331.6911 3.10983 0 1.246-.2304 2.2826-.6911 3.1098-.4497.8271-1.0969 1.4449-1.9416 1.8533-.8446.4083-1.8593.6125-3.044.6125Zm0-1.4921c.6033 0 1.1354-.0785 1.5961-.2356.4717-.157.8665-.3978 1.1847-.7224.329-.3246.5758-.733.7404-1.2251.1755-.4921.2633-1.0628.2633-1.712v-.3455c0-.67012-.0878-1.25125-.2633-1.74337-.1646-.49212-.4114-.90048-.7404-1.22507-.3182-.32459-.713-.56542-1.1847-.72248-.4607-.15706-.9928-.23559-1.5961-.23559-.5923 0-1.1243.07853-1.596.23559-.4607.15706-.8556.39789-1.1847.72248-.3181.32459-.5595.73295-.724 1.22507-.1645.49212-.2468 1.07325-.2468 1.74337v.3455c0 .6492.0823 1.2199.2468 1.712.1645.4921.4059.9005.724 1.2251.3291.3246.724.5654 1.1847.7224.4717.1571 1.0037.2356 1.596.2356Z" /><path d="M55.5183 6.70145v9.20265h1.8429v-4.5862h5.6272V9.82585h-5.6272V7.2662c0-.34721.2948-.62868.6586-.62868h5.561V5.12974h-6.4159c-.9094 0-1.6466.70368-1.6466 1.57171ZM69.0821 15.9041V6.63752H65.347V5.12974h9.3459v1.50778h-3.768v9.26658h-1.8428Z" /><path fill-rule="evenodd" clip-rule="evenodd" d="M77.1333 5.12974V15.9041h1.8428V11.742h3.9161l2.139 4.1621h2.0074l-2.3529-4.4605c.6252-.2513 1.1079-.644 1.4479-1.178.3401-.53399.5101-1.16223.5101-1.88471 0-.64918-.1316-1.2146-.3949-1.69625-.2633-.49212-.6582-.8743-1.1847-1.14654-.5265-.27224-1.1902-.40836-1.9909-.40836h-5.9399Zm5.7918 5.13586h-3.949V6.63752h3.949c.4059 0 .7459.06806 1.0202.20418.2742.13612.4826.33506.6252.59683.1426.2513.2139.56018.2139.92666 0 .59683-.1645 1.06277-.4936 1.39783-.3181.33508-.7734.50258-1.3657.50258Z" /><path d="M92.6356 15.9041V11.475l-4.3932-6.34526h2.1061l3.225 4.77464h.0823l3.1921-4.77464h2.0238L94.4785 11.475v4.4291h-1.8429ZM100.287 15.0403v.8638h9.33v-1.5078h-6.631l6.483-8.40272v-.86384h-8.754v1.50778h6.022l-6.45 8.40278ZM113.941 15.9041c-.909 0-1.646-.7037-1.646-1.5717V6.70145c0-.86803.737-1.57171 1.646-1.57171h7.107v1.50778h-6.252c-.363 0-.658.28147-.658.62868v2.37118h6.186v1.50782h-6.186v2.6224c0 .3472.295.6287.658.6287h6.351v1.5078h-7.206ZM124.122 15.9041V5.12974h1.777l5.776 7.64886h.082V5.12974h1.777V15.9041h-1.711l-5.841-7.7588h-.083v7.7588h-1.777Z" /></svg>