<svg  fill="none" xmlns="http://www.w3.org/2000/svg"><path d="M1.15932 16.7683c.04952 0 .09144-.0407.09856-.0981l.26921-2.1337-.26841-2.1822c-.008-.0574-.04984-.0984-.09936-.0984-.0508 0-.09408.0419-.1008.0984l-.235278 2.1822.235278 2.133c.00672.0573.05.0988.1008.0988ZM.271761 15.9572c.04864 0 .088081-.0378.095201-.0944l.208641-1.3259-.208641-1.3507c-.0072-.0548-.046561-.0944-.095201-.0944-.0508 0-.09016.0396-.09736.0952L0 14.537l.174401 1.3255c.0072.0561.04656.0947.09736.0947ZM2.22124 11.9481c-.0064-.0693-.0572-.12-.12024-.12-.06256 0-.11344.0507-.11928.12l-.22488 2.5884.22488 2.494c.00584.0689.05672.1189.11928.1189.06304 0 .11384-.05.12024-.1189l.2544-2.494-.2544-2.5884ZM3.0512 17.2514c.07376 0 .13344-.0607.14064-.1401l.24041-2.5724-.24041-2.6607c-.0072-.0799-.06688-.1399-.14064-.1399-.0748 0-.13536.0601-.14048.1403l-.21248 2.6603.21248 2.5724c.00512.0795.06568.1401.14048.1401ZM4.00964 17.2915c.08592 0 .15488-.0688.162-.1609l-.0008.0007.2264-2.5941-.2264-2.4686c-.0064-.0906-.07528-.1604-.16128-.1604-.0872 0-.15576.0698-.16096.1611l-.20016 2.468.20016 2.5934c.00528.092.07384.1608.16104.1608ZM5.37085 14.5365l-.2124-4.0138c-.00592-.1017-.0852-.1829-.18248-.1829-.09656 0-.1756.0811-.18152.1829l-.188 4.0138.188 2.5935c.00592.1022.08504.1822.18152.1822.09736 0 .17656-.08.18248-.1822v.0007l.2124-2.5942ZM5.95067 17.3165c.10712 0 .196-.0889.20104-.2024v.0017l.19856-2.5786-.19856-4.93253c-.00504-.11345-.09392-.20233-.20104-.20233-.1096 0-.19768.08888-.2036.20233l-.1748 4.93253.1756 2.5777c.00512.1127.0932.2016.2028.2016ZM6.9315 8.9707c-.12064 0-.218.09904-.22296.22392L6.5459 14.5387l.16264 2.5508c.00504.1242.10232.2226.22296.2226.12032 0 .2184-.0976.22264-.223v.0012l.18456-2.5516-.18456-5.34408c-.00424-.12568-.1024-.22392-.22264-.22392ZM7.92018 17.3219c.13248 0 .238-.1069.24296-.2445v.0015l.17064-2.5354-.17064-5.52363c-.00504-.13712-.11048-.24448-.24296-.24448-.13328 0-.24041.10736-.24249.24448l-.15328 5.52363.15328 2.5354c.00208.1361.10921.243.24249.243ZM8.91689 17.3161c.14296 0 .25896-.1171.26328-.2655v.0023l.15704-2.5123-.15704-5.38314c-.00432-.14832-.12032-.26488-.26328-.26488-.144 0-.26.11648-.26424.26488l-.138 5.38314.13888 2.5111c.00336.1473.11936.2644.26336.2644ZM10.3479 14.5409l-.1421-5.18686c-.0035-.16-.1288-.28568-.28411-.28568-.15576 0-.28112.12568-.2844.28672l-.12752 5.18582.12752 2.4959c.00328.1587.12856.2845.2844.2845.15531 0 .28061-.1258.28411-.2868v.0023l.1421-2.4959ZM10.936 17.3231c.1652 0 .3019-.1374.3044-.3063v.0014l.1291-2.4787-.1291-6.17231c-.0024-.16952-.1392-.30664-.3044-.30664-.165 0-.3013.13776-.3047.30752l-.1147 6.16893.1147 2.4813c.0034.1674.1397.3048.3047.3048ZM11.9417 7.48242c-.1783 0-.323.14792-.3259.32824l-.1334 6.73214.1342 2.4421c.0021.178.1469.3254.3251.3254.1756 0 .323-.1475.3238-.3284v.003l.1456-2.4421-.1456-6.73214c-.0008-.18096-.1482-.32824-.3238-.32824ZM12.8652 17.3269c.0072.0006 8.1299.0045 8.182.0045 1.6308 0 2.9523-1.3378 2.9523-2.9886 0-1.6499-1.3216-2.9879-2.9523-2.9879-.4047 0-.7903.0827-1.142.2325-.2337-2.69366-2.4652-4.80615-5.1874-4.80615-.6654 0-1.3143.13296-1.8874.35752-.2231.0872-.2827.17712-.2845.35136v9.48317c.0026.1832.1422.3354.3193.3536Z" fill="#1A341B"/></svg>