<svg  fill="none" xmlns="http://www.w3.org/2000/svg"><g clip-path="url(#a)"><path d="M11 .359375C4.92782.359375 0 5.3502 0 11.5s4.92782 11.1406 11 11.1406c6.0722 0 11-4.9908 11-11.1406C22 5.3502 17.0722.359375 11 .359375Z" fill="#1A341B"/><path d="M18.0355 10.3811c-.2306 0-.3725-.0584-.5721-.1752-3.1581-1.90922-8.80448-2.36742-12.45932-1.33422-.15967.04492-.35927.1168-.57217.1168-.58549 0-1.03347-.4627-1.03347-1.06016 0-.61094.37258-.95684.77177-1.07363 1.56129-.4627 3.30887-.68281 5.21169-.68281 3.2379 0 6.6311.68281 9.1105 2.14726.346.20215.5722.48067.5722 1.01524 0 .61093-.4879 1.04672-1.0291 1.04672Zm-1.375 3.423c-.2306 0-.3859-.1033-.5455-.1887-2.7722-1.6621-6.90608-2.3314-10.58309-1.3207-.21291.0584-.32823.1168-.52783.1168-.47459 0-.86048-.3908-.86048-.8715 0-.4806.23064-.7996.6875-.9298 1.23306-.3504 2.49274-.61098 4.3379-.61098 2.8786 0 5.6597.72328 7.8508 2.04398.3593.2156.5012.4941.5012.8849-.0044.4852-.377.876-.8605.876Zm-1.1931 2.9469c-.1863 0-.3016-.0584-.4746-.1617-2.7678-1.6891-5.98791-1.761-9.16815-1.1006-.17299.0449-.3992.1168-.52783.1168-.43024 0-.7008-.3459-.7008-.7098 0-.4627.27056-.6828.60322-.7547 3.63266-.8131 7.34516-.7412 10.51206 1.177.2706.1752.4303.3324.4303.7412s-.3149.6918-.6742.6918Z" fill="#F3EFE9"/></g><defs><clipPath id="a"><path fill="#fff" d="M0 0h22v23H0z"/></clipPath></defs></svg>