<svg width="102" height="102" fill="none" xmlns="http://www.w3.org/2000/svg"><mask id="a" maskUnits="userSpaceOnUse" x="0" y="0" width="102" height="102" fill="#000"><path fill="#fff" d="M0 0h102v102H0z"/><path fill-rule="evenodd" clip-rule="evenodd" d="M90.4767 15.2463c1.3367 1.0916 1.5354 3.0603.4437 4.397l-40.8333 50c-.5707.6988-1.4155 1.1168-2.3172 1.1467-.9016.0298-1.7722-.3316-2.3878-.9911l-17.5-18.75c-1.1776-1.2617-1.1094-3.2392.1523-4.4168 1.2617-1.1776 3.2392-1.1094 4.4168.1523l15.0585 16.1341L86.0796 15.69c1.0917-1.3368 3.0603-1.5354 4.3971-.4437Z"/><path d="M94.75 51c0 24.1625-19.5875 43.75-43.75 43.75S7.25 75.1625 7.25 51 26.8375 7.25 51 7.25c2.9122 0 5.7579.28454 8.5109.82732C61.5227 8.47397 63.5 7.00187 63.5 4.9514c0-1.39861-.9449-2.62974-2.3145-2.91319C57.897 1.35762 54.4903 1 51 1 23.3858 1 1 23.3858 1 51s22.3858 50 50 50 50-22.3858 50-50c0-.4381-.006-.875-.017-1.3104-.041-1.6161-1.3983-2.8563-3.015-2.8563-1.8311 0-3.2556 1.5769-3.2245 3.4078.0043.2525.0065.5054.0065.7589Z"/></mask><path fill-rule="evenodd" clip-rule="evenodd" d="M90.4767 15.2463c1.3367 1.0916 1.5354 3.0603.4437 4.397l-40.8333 50c-.5707.6988-1.4155 1.1168-2.3172 1.1467-.9016.0298-1.7722-.3316-2.3878-.9911l-17.5-18.75c-1.1776-1.2617-1.1094-3.2392.1523-4.4168 1.2617-1.1776 3.2392-1.1094 4.4168.1523l15.0585 16.1341L86.0796 15.69c1.0917-1.3368 3.0603-1.5354 4.3971-.4437Z" fill="#F2600C"/><path d="M94.75 51c0 24.1625-19.5875 43.75-43.75 43.75S7.25 75.1625 7.25 51 26.8375 7.25 51 7.25c2.9122 0 5.7579.28454 8.5109.82732C61.5227 8.47397 63.5 7.00187 63.5 4.9514c0-1.39861-.9449-2.62974-2.3145-2.91319C57.897 1.35762 54.4903 1 51 1 23.3858 1 1 23.3858 1 51s22.3858 50 50 50 50-22.3858 50-50c0-.4381-.006-.875-.017-1.3104-.041-1.6161-1.3983-2.8563-3.015-2.8563-1.8311 0-3.2556 1.5769-3.2245 3.4078.0043.2525.0065.5054.0065.7589Z" fill="#F2600C"/><path d="m90.9204 19.6433.7745.6326-.7745-.6326Zm-.4437-4.397.6325-.7746-.6325.7746Zm-40.3896 54.397-.7746-.6325.7746.6325ZM47.7699 70.79l-.033-.9995.033.9995Zm-2.3878-.9911-.731.6823.731-.6823Zm-17.5-18.75-.731.6823.731-.6823Zm.1523-4.4168-.6823-.731.6823.731Zm4.4168.1523-.731.6823.731-.6823Zm15.0585 16.1341-.7311.6823c.197.211.4756.3267.7641.3171.2885-.0095.5589-.1433.7415-.3669l-.7745-.6325ZM86.0796 15.69l.7745.6325-.7745-.6325Zm8.6639 34.5511-.9998.017.9998-.017Zm6.2395-.5515-.9995.0257.9995-.0257ZM61.1855 2.03821l-.2026.97925.2026-.97925Zm-1.6746 6.03911.1935-.98111-.1935.98111Zm32.184 12.19858c1.4411-1.7645 1.1788-4.3632-.5857-5.8042l-1.2651 1.5491c.909.7423 1.0441 2.081.3018 2.99l1.549 1.2651Zm-40.8333 50 40.8333-50-1.549-1.2651-40.8334 50 1.5491 1.2651Zm-3.0586 1.5135c1.1902-.0393 2.3053-.5912 3.0586-1.5135l-1.5491-1.2651c-.388.4752-.9625.7594-1.5756.7797l.0661 1.9989Zm-3.1519-1.3082c.8125.8706 1.9617 1.3476 3.1519 1.3082l-.0661-1.9989c-.6131.0203-1.2051-.2254-1.6237-.6739l-1.4621 1.3646Zm-17.5-18.75 17.5 18.75 1.4621-1.3646-17.5-18.75-1.4621 1.3646Zm.201-5.8301c-1.6655 1.5544-1.7555 4.1647-.201 5.8301l1.4621-1.3646c-.8008-.858-.7544-2.2027.1035-3.0034l-1.3646-1.4621Zm5.8302.201c-1.5545-1.6655-4.1647-1.7555-5.8302-.201l1.3646 1.4621c.858-.8008 2.2027-.7544 3.0035.1035l1.4621-1.3646Zm15.0584 16.1341L33.1823 46.1021l-1.4621 1.3646 15.0584 16.1341 1.4621-1.3646Zm37.0644-47.1787-38.57 47.2284 1.5491 1.2651 38.5699-47.2285-1.549-1.265Zm5.8041-.5858c-1.7645-1.441-4.3631-1.1788-5.8041.5858l1.549 1.265c.7424-.909 2.081-1.0441 2.99-.3017l1.2651-1.5491ZM51 95.75c24.7147 0 44.75-20.0353 44.75-44.75h-2c0 23.6102-19.1398 42.75-42.75 42.75v2ZM6.25 51c0 24.7147 20.0353 44.75 44.75 44.75v-2C27.3898 93.75 8.25 74.6102 8.25 51h-2ZM51 6.25C26.2853 6.25 6.25 26.2853 6.25 51h2C8.25 27.3898 27.3898 8.25 51 8.25v-2Zm8.7044.84621C56.888 6.54093 53.9775 6.25 51 6.25v2c2.8469 0 5.6279.27814 8.3175.80844l.3869-1.96223Zm1.6838-6.03725C58.0334.364652 54.5587 0 51 0v2c3.4218 0 6.7606.35058 9.9829 1.01746l.4053-1.9585ZM51 0C22.8335 0 0 22.8335 0 51h2C2 23.938 23.938 2 51 2V0ZM0 51c0 28.1665 22.8335 51 51 51v-2C23.938 100 2 78.062 2 51H0Zm51 51c28.1665 0 51-22.8335 51-51h-2c0 27.062-21.938 49-49 49v2Zm51-51c0-.4467-.006-.8921-.017-1.3361l-1.9995.0514c.011.4269.0165.8551.0165 1.2847h2Zm-6.25 0c0-.2592-.0022-.5178-.0066-.7759l-1.9997.034c.0042.2468.0063.4941.0063.7419h2Zm2.218-5.1667c-2.4394 0-4.2641 2.0858-4.2243 4.4248l1.9997-.034c-.0225-1.3227 1.0019-2.3908 2.2246-2.3908v-2Zm4.015 3.8306c-.057-2.1945-1.893-3.8306-4.015-3.8306v2c1.1114 0 1.9888.8442 2.0155 1.882l1.9995-.0514ZM64.5 4.9514c0-1.84336-1.2497-3.50705-3.1118-3.89244l-.4053 1.9585c.877.18151 1.5171.98009 1.5171 1.93394h2Zm-5.1825 4.10704C61.8816 9.56398 64.5 7.69704 64.5 4.9514h-2c0 1.35531-1.3363 2.43255-2.7956 2.14481l-.3869 1.96223Z" fill="#F2600C" mask="url(#a)"/></svg>