<svg width="72" height="72" fill="none" xmlns="http://www.w3.org/2000/svg"><path fill-rule="evenodd" clip-rule="evenodd" d="M0 0h72v71.9993H0V0Zm2.93362 2.93359V69.0657H69.0664V2.93359H2.93362Z" fill="#DAD1C5"/><path fill-rule="evenodd" clip-rule="evenodd" d="M51.2305 34.8633c10.2546 0 18.5676 8.3129 18.5676 18.5674 0 10.2546-8.313 18.5675-18.5676 18.5675v-2.9336c8.6344 0 15.634-6.9995 15.634-15.6339 0-8.6343-6.9996-15.6338-15.634-15.6338v-2.9336ZM42.0344 2.93359c-8.726 0-15.8 7.07391-15.8 15.79981 0 8.726 7.074 15.7999 15.8 15.7999v2.9336c-10.3462 0-18.7336-8.3874-18.7336-18.7335C23.3008 8.38734 31.6882 0 42.0344 0v2.93359ZM34.689 71.1893.15625 2.12444 2.78016.8125 37.3129 69.8774l-2.6239 1.3119Z" fill="#DAD1C5"/><path fill-rule="evenodd" clip-rule="evenodd" d="M34.6875 69.8774 69.2203.8125l2.6239 1.31194L37.3114 71.1893l-2.6239-1.3119Z" fill="#DAD1C5"/><path fill-rule="evenodd" clip-rule="evenodd" d="M70.5343 37.4648H1.46875v-2.9336H70.5343v2.9336Z" fill="#DAD1C5"/></svg>