<svg viewBox="0 0 138 36" fill="currentColor" xmlns="http://www.w3.org/2000/svg">
  <path d="M86.1563 21.003c1.3968.4982 2.8569.7474 4.3805.7474 1.7582 0 3.1982-.2592 4.3243-.7748 1.1232-.5184 1.9584-1.2024 2.5056-2.052.5472-.8496.8208-1.7726.8208-2.7691 0-1.0742-.229-1.944-.6883-2.6078-.4594-.6639-1.0656-1.1967-1.8173-1.597-.7517-.4003-1.5725-.7286-2.461-.9821a63.8854 63.8854 0 0 0-2.6813-.7027c-.9-.2145-1.7251-.4593-2.4768-.733-.7531-.2735-1.3579-.6551-1.8172-1.1433-.4594-.4882-.6884-1.1333-.6884-1.934 0-.704.1901-1.3334.5717-1.8906.3802-.5573.972-1.0008 1.7727-1.3335.8006-.3326 1.8158-.4982 3.047-.4982.9173 0 1.8706.1368 2.857.4104.9849.2736 1.9195.7027 2.7979 1.2888l.7329-1.7294c-.8208-.566-1.7971-1.011-2.9304-1.3335-1.1332-.3226-2.2766-.4838-3.4286-.4838-1.7395 0-3.1651.2592-4.2782.7761-1.1146.5184-1.9397 1.2024-2.4768 2.052-.5386.8496-.8064 1.7828-.8064 2.798 0 1.0943.2289 1.9785.6883 2.6524.4593.674 1.0656 1.2154 1.8173 1.6258.7531.4104 1.5782.7387 2.4768.9821a88.1768 88.1768 0 0 0 2.6956.6883c.8972.216 1.718.4651 2.461.7473.743.2837 1.3435.6696 1.8029 1.1578.4579.4882.6883 1.1333.6883 1.9339 0 .6653-.1901 1.2701-.5717 1.8173-.3801.5472-.9763.9821-1.787 1.3046-.8107.3226-1.8619.4839-3.1507.4839-1.3479 0-2.6324-.2391-3.8535-.7186-1.2211-.4781-2.1931-1.0699-2.916-1.7726l-.8496 1.6704c.7618.7819 1.8418 1.4213 3.2386 1.9195ZM51.0937 21.5748 42.0088 1.0619h2.3443l7.8567 17.8526 7.9099-17.8526h2.1974l-9.085 20.5129h-2.1384ZM67.445 19.6999h12.3364v1.8749H65.2763V1.0619h14.0659v1.875H67.445v7.2979h10.6084v1.846H67.445v7.6191ZM106.596 21.5748V2.9368h-7.209V1.062h16.586v1.8748h-7.21v18.638h-2.167Z"/>
  <path fill-rule="evenodd" clip-rule="evenodd" d="m124.499 1.062-9.377 20.5128h2.256l2.452-5.4792h11.449l2.452 5.4792h2.285l-9.377-20.5129h-2.14Zm5.993 13.2753-4.937-11.0339-4.938 11.0339h9.875Z"/>
  <path d="M81.5787 34.519h.8352l.0014-3.348h1.1491v-.7488h-1.1635v-.2894c0-.1901.0432-.3312.1267-.4191.085-.0878.2074-.1296.3787-.1296a.827.827 0 0 1 .2578.0389c.0763.0245.1397.059.1958.108l.1642.1426.311-.6884-.0892-.0792c-.1095-.0979-.2448-.1699-.4018-.2145a1.6935 1.6935 0 0 0-.4608-.0634c-.4133 0-.7373.121-.9648.36-.2261.2362-.3398.5472-.3398.9245v.311h-.6754v.7488h.6754v3.3466Z"/>
  <path fill-rule="evenodd" clip-rule="evenodd" d="m78.6814 34.6759-.7085-.7286a2.2185 2.2185 0 0 1-.4953.3456c-.3471.1786-.7445.2693-1.1808.2693-.3456 0-.6596-.0591-.9332-.1743-.2793-.118-.5025-.2865-.6652-.4996-.1671-.2189-.252-.4767-.252-.7661 0-.2419.0547-.4666.1627-.6696.1051-.1973.275-.3931.504-.5803.1397-.1138.3081-.2333.5069-.3543a4.2595 4.2595 0 0 1-.2463-.2995c-.108-.1454-.1857-.288-.2289-.4248-.0432-.1339-.0648-.2794-.0648-.4306 0-.2462.0604-.4651.18-.6523.1195-.1857.2908-.3312.5097-.4334.2117-.0979.4623-.1483.7431-.1483.2563 0 .4852.0446.6811.1324.2016.0908.3629.2261.4781.3989.1152.1757.1742.3874.1742.6279 0 .2088-.0518.4075-.1541.5889-.0993.1771-.2606.3499-.4781.5141-.1094.0821-.239.1685-.3888.2606l1.0772 1.1088c.0936-.2088.1656-.4507.2174-.7228l.0346-.18.7214.2275-.0274.1425c-.0806.4234-.2116.7935-.3902 1.106l.7315.7545-.5083.5875Zm-2.5474-2.6222c-.18.108-.3312.2102-.4478.3038-.157.1239-.2678.2448-.3283.3557-.0591.108-.0879.2247-.0879.3571 0 .1469.0404.2708.121.3802.085.1123.2059.2002.3614.2635.1642.0663.3572.0994.5746.0994.3067 0 .5832-.0634.8222-.1901a1.496 1.496 0 0 0 .3024-.2131l-1.3176-1.3565Zm.3802-2.2162c-.2102 0-.3715.049-.4795.1484-.1051.095-.1555.2174-.1555.3715 0 .0821.0129.1613.0374.2347.0245.0734.0763.157.1526.252.062.0763.1426.1699.242.2779a5.7149 5.7149 0 0 0 .37-.239c.1527-.1095.2607-.2131.3212-.3067.0547-.0864.082-.1757.082-.2751 0-.1397-.0446-.2477-.1368-.3312-.0964-.0893-.2419-.1325-.4334-.1325Z"/>
  <path d="M52.027 34.5551c-.3975 0-.7114-.1123-.9346-.3355-.2218-.2217-.3355-.5342-.3355-.9259v-2.1211h-.6754v-.7488h.6754V29.59h.8352v.8338h1.1491v.7488h-1.1491v2.0923c0 .1771.0418.311.1238.3989.0807.0864.2016.1282.3658.1282.1857 0 .3341-.0505.4536-.1541l.1598-.1397.3269.6667-.0907.0821c-.1181.1066-.2607.1857-.4248.2361a1.623 1.623 0 0 1-.4795.072Z"/>
  <path fill-rule="evenodd" clip-rule="evenodd" d="M46.9855 34.2872c.3197.1771.6941.2678 1.1132.2678.3225 0 .622-.0576.8928-.1728.2736-.1152.5054-.2851.6897-.5054l.0893-.1066-.5026-.5774-.1224.144c-.1267.1469-.2779.2577-.4521.3283-.1771.072-.373.1094-.5803.1094-.265 0-.5012-.0561-.7028-.1641-.203-.108-.3556-.2549-.468-.4479-.0662-.1123-.1123-.239-.1396-.3758h3.1464v-.1627a.9643.9643 0 0 1 .0028-.0663.9955.9955 0 0 0 .0044-.0907c0-.1152-.0072-.2275-.0216-.3355l.0662-.0504h-.0734c-.0375-.252-.1152-.4838-.229-.6941-.1714-.3139-.4118-.563-.7114-.7373-.2995-.1742-.6451-.262-1.0267-.262-.3773 0-.7229.0907-1.0267.2707-.3038.18-.5458.4291-.72.7401-.1728.3096-.2606.6696-.2606 1.07 0 .4003.0921.7617.2736 1.0756.1814.314.4377.5645.7588.7431Zm2.1327-2.2047h-2.3098a1.225 1.225 0 0 1 .1195-.3355c.1008-.1901.2376-.3341.4191-.4392.18-.1037.3873-.1569.6149-.1569.2318 0 .4392.0532.6134.1569.1786.1051.3154.2491.419.4378.0562.1037.098.216.1239.3369Z"/>
  <path d="M43.577 34.519h.7359l1.8259-4.0953h-.8597l-1.3248 2.9736-1.3061-2.9736h-.8884l1.8172 4.0953Z"/>
  <path fill-rule="evenodd" clip-rule="evenodd" d="M54.102 34.2872c.3197.1771.6941.2678 1.1131.2678.3226 0 .6221-.0576.8914-.1713.275-.1152.5069-.2852.6912-.5055l.0893-.1065-.5026-.5775-.1224.144c-.1267.1469-.2779.2578-.4521.3283-.1772.072-.373.1095-.5804.1095-.2649 0-.5011-.0562-.7027-.1642-.203-.108-.3557-.2549-.468-.4478-.0662-.1123-.1123-.2391-.1397-.3759h3.1464v-.1627c0-.023.0015-.0461.0029-.0677a.9942.9942 0 0 0 .0043-.0907c0-.1152-.0072-.2275-.0216-.3355l.0663-.0504h-.0735a2.0975 2.0975 0 0 0-.2289-.6941c-.1728-.3139-.4119-.563-.7114-.7373-.2995-.1742-.6451-.262-1.0267-.262-.3773 0-.7229.0907-1.0267.2707-.3039.18-.5458.4291-.72.7401-.1728.3096-.2607.6696-.2607 1.07 0 .4003.0922.7632.2736 1.0756.1815.314.4378.5645.7589.7431Zm2.0088-2.5416c.0562.1037.0979.216.1238.3369h-2.3097a1.18 1.18 0 0 1 .121-.3355c.1008-.1901.2376-.3341.419-.4392.18-.1037.3874-.1569.6149-.1569.2318 0 .4392.0532.6134.1569.1771.1051.3139.2491.4176.4378Z"/>
  <path d="M58.6221 34.519h-.8338v-4.0953h.8136v.3902a1.4254 1.4254 0 0 1 .2333-.1771c.2736-.1656.6135-.2491 1.0109-.2491h.1627v.8208h-.1627a.701.701 0 0 1-.0778-.0044.5464.5464 0 0 0-.021-.0022.2226.2226 0 0 0-.0164-.0006c-.3528 0-.6192.1022-.815.311-.1944.2102-.2938.5184-.2938.9202v2.0865Z"/>
  <path fill-rule="evenodd" clip-rule="evenodd" d="M60.7533 34.4009c.2275.1022.4982.1541.8021.1541.3888 0 .7185-.0835.9821-.2463.0561-.0345.108-.072.1569-.1123v.324h.8136v-2.5041c0-.5386-.1526-.949-.4521-1.2226-.2967-.2678-.7128-.4046-1.2413-.4046-.3125 0-.6149.0475-.8986.1411-.2865.095-.5371.2318-.743.4075l-.1051.0893.4017.6653.1455-.1282c.1382-.1195.3096-.2189.5097-.2923.2016-.0749.4176-.1123.6408-.1123.3096 0 .5415.072.6883.2131.1469.1411.2189.3456.2189.6221v.0662H61.636c-.3816 0-.6926.0547-.9259.1627-.2434.1123-.4219.265-.5328.4536-.108.1843-.1627.3917-.1627.6163 0 .2477.0648.4695.1929.661.1268.1901.3096.3413.5458.4464Zm.2477-1.4832c.0763-.0691.2491-.1512.648-.1512h1.0224v.4234c-.0835.2044-.2088.3571-.3802.4651-.1814.1152-.4017.1728-.6566.1728-.2635 0-.4666-.0533-.6048-.1599-.1282-.0993-.1872-.2232-.1872-.3888 0-.1454.0518-.2635.1584-.3614Z"/>
  <path d="M68.3695 34.519h-.8367v-2.3025c0-.3514-.0849-.6164-.252-.7877-.1685-.1728-.4032-.2563-.72-.2563-.239 0-.4493.0475-.6221.1425-.1713.0936-.2995.2232-.3931.4003-.095.1786-.1425.4004-.1425.6596v2.1441h-.8352v-4.0953h.8136v.4003a1.6762 1.6762 0 0 1 .2505-.18c.288-.1699.6322-.2563 1.0239-.2563.3297 0 .6264.0648.8813.1929.2606.1325.468.3341.6148.6019.144.2621.2175.5933.2175.9836v2.3529ZM69.6641 34.4138c.2923.0936.6062.1411.9331.1411.3485 0 .6523-.0475.9043-.1425.2606-.0979.4637-.2419.6034-.4263.1425-.1886.216-.4147.216-.6696 0-.239-.0548-.4377-.1628-.5918-.1051-.1498-.2447-.2664-.4161-.3485-.1555-.0749-.3283-.1339-.5141-.1771a8.5179 8.5179 0 0 0-.5342-.1066c-.1671-.0288-.3226-.0633-.4594-.1065-.1224-.0389-.2203-.0907-.2909-.1555-.0345-.0317-.0806-.0879-.0806-.2175s.0561-.2304.1742-.3168c.1311-.095.3514-.144.6538-.144.1757 0 .3557.0245.5328.0706a1.546 1.546 0 0 1 .4881.2246l.1484.1023.3801-.6984-.1238-.0821c-.1728-.1138-.3917-.2074-.6523-.2765a3.0367 3.0367 0 0 0-.7747-.1022c-.3413 0-.6365.0518-.8785.1526-.2491.1051-.4435.2534-.576.4406-.1339.1901-.2016.4076-.2016.6466 0 .2477.0548.4536.1613.6091.1037.1512.2405.2707.4075.3571.1556.0807.3298.1426.517.1829.1728.0375.3542.072.5371.1023.1685.0273.3255.0604.4623.0993.118.0331.2145.0821.2836.144.0332.0288.0778.0835.0778.2045 0 .1339-.0533.2347-.1685.3168-.0893.0634-.2793.1382-.6811.1382-.2434 0-.4795-.0388-.6998-.1166-.2218-.0778-.4047-.1699-.5444-.275l-.1468-.1109-.3888.6797.1036.0878c.1743.1469.4133.2693.71.3643Z"/>
  <path fill-rule="evenodd" clip-rule="evenodd" d="M85.0807 34.555c-.3039 0-.5746-.0519-.8021-.1541-.2362-.1051-.419-.2563-.5458-.4464-.1281-.1915-.1929-.4133-.1929-.661 0-.2246.0547-.432.1627-.6163.1109-.1886.2894-.3413.5328-.4536.2333-.108.5458-.1627.9259-.1627h1.0368v-.0662c0-.2765-.072-.481-.2189-.6221-.1468-.1411-.3787-.2131-.6883-.2131-.2232 0-.4392.0374-.6408.1123-.2002.0734-.3715.1728-.5097.2923l-.1455.1282-.4017-.6653.1051-.0893c.2059-.1757.4565-.3125.743-.4075.2837-.0936.5861-.1411.8986-.1411.5285 0 .9446.1368 1.2413.4046.2995.2722.4521.684.4521 1.2226v2.5041h-.8136v-.324a1.396 1.396 0 0 1-.157.1123c-.2635.1628-.5932.2463-.982.2463Zm.0936-1.7885c-.3989 0-.5717.0821-.648.1512-.1066.0979-.1584.216-.1584.3614 0 .1656.059.2895.1872.3888.1382.1066.3413.1599.6048.1599.2549 0 .4752-.0576.6566-.1728.1714-.108.2967-.2607.3802-.4651v-.4234h-1.0224Z"/>
  <path d="M93.8157 34.519h.8366v-2.3529c0-.3874-.0705-.7186-.2088-.9807-.1411-.2678-.3441-.4709-.6004-.6033-.2506-.1296-.5444-.1944-.8756-.1944-.4233 0-.7934.1036-1.1001.311-.144.0979-.2679.2088-.3715.3355a1.2989 1.2989 0 0 0-.3298-.3398c-.2851-.2031-.6336-.3067-1.0354-.3067-.3773 0-.7113.0878-.9921.2577a1.6047 1.6047 0 0 0-.2304.1685v-.3902h-.8136v4.0953h.8352v-2.1441c0-.2607.0461-.4824.1368-.6624.0878-.1757.2117-.3068.3758-.3989.1656-.0936.3629-.1411.5875-.1411.301 0 .5242.082.6855.2534.1612.1714.2433.4363.2433.7891v2.3026h.8352v-2.1442c0-.2606.0461-.4824.1368-.6624.0893-.1757.2103-.3067.373-.3989.1627-.0921.3614-.1396.5904-.1396.2995 0 .5227.0835.6811.2534.1599.1714.2405.4378.2405.7906v2.3025ZM96.1328 29.917c-.1498 0-.2779-.0519-.3816-.1555-.1023-.1023-.1555-.2304-.1555-.373a.507.507 0 0 1 .1569-.3715c.1037-.0994.2304-.1498.3787-.1498.1469 0 .2736.049.3773.144a.4987.4987 0 0 1 .1599.3701c0 .1483-.0504.2765-.1498.3787-.0994.1023-.2318.157-.3859.157ZM96.5475 34.5192h-.8352v-4.0953h.8352v4.0953ZM97.6433 34.519h.8352v-5.6535h-.8352v5.6535ZM99.7658 35.9475a1.6686 1.6686 0 0 1-.5616-.095c-.1828-.0663-.3412-.1656-.4737-.2967l-.0907-.0907.4104-.6595.1454.1368a.9741.9741 0 0 0 .2664.1814c.0907.0403.1958.0605.311.0605.1325 0 .242-.0346.336-.1066.1-.0763.201-.2217.299-.432l.133-.298-1.7587-3.924h.8885l1.3162 2.9649 1.315-2.9649h.859l-1.991 4.4524c-.111.2564-.238.4666-.375.6236-.142.1612-.302.2793-.473.3484-.166.0663-.3531.0994-.5562.0994Z"/>
  <path fill-rule="evenodd" clip-rule="evenodd" d="m108.515 33.9473.709.7286.507-.5875-.732-.7545c.179-.3125.31-.684.39-1.106l.028-.1425-.722-.2275-.034.18c-.052.2721-.124.514-.218.7228l-1.077-1.1088c.15-.0921.279-.1785.389-.2606.219-.1642.38-.337.479-.5141.103-.1814.155-.3801.155-.5889 0-.2405-.06-.4522-.175-.6279-.115-.1728-.276-.3081-.478-.3989-.196-.0878-.425-.1324-.681-.1324-.281 0-.531.0504-.743.1483-.219.1022-.39.2477-.51.4334-.119.1872-.18.4061-.18.6523 0 .1512.022.2952.065.4306.043.1368.121.2794.229.4248.066.0893.148.1901.246.2995-.198.121-.367.2405-.507.3543-.229.1872-.398.383-.504.5803-.108.203-.162.4277-.162.6696 0 .2894.085.5472.252.7661.162.2131.386.3816.665.4996.274.1152.587.1743.933.1743.436 0 .834-.0907 1.181-.2693.18-.0922.346-.2074.495-.3456Zm-2.288-1.5898c.117-.0936.268-.1958.448-.3038l1.318 1.355c-.094.085-.195.1556-.303.2132-.239.1267-.515.19-.822.19-.218 0-.41-.0331-.575-.0993-.155-.0634-.276-.1512-.361-.2635-.081-.108-.121-.2319-.121-.3788 0-.1324.029-.2491.088-.3571.06-.1109.171-.2304.328-.3557Zm.349-2.3716c.108-.0994.269-.1484.479-.1484.192 0 .337.0432.432.1325.092.0835.137.1915.137.3312 0 .0994-.027.1887-.082.2751-.061.0936-.169.1972-.321.3067-.1.0705-.223.1512-.37.239-.098-.108-.179-.2001-.241-.2779-.076-.095-.128-.18-.153-.252a.7554.7554 0 0 1-.037-.2347c0-.1541.05-.2765.156-.3715Z"/>
  <path d="M112.956 34.5193h-.835v-3.3466h-.675v-.7488h.675v-.311c0-.3773.114-.6883.34-.9245.227-.239.551-.36.965-.36.157 0 .312.0216.461.0634.157.0446.292.1166.401.2145l.09.0792-.313.6883-.164-.1425a.5656.5656 0 0 0-.196-.108.8238.8238 0 0 0-.258-.0389c-.171 0-.293.0418-.378.1296-.084.0878-.127.229-.127.419v.2895h1.163v.7488h-1.149v3.348ZM115.302 34.5193h-.834v-4.0954h.814v.3903c.07-.0663.148-.1253.233-.1771.274-.1656.614-.2492 1.011-.2492h.163v.8208h-.163a.703.703 0 0 1-.078-.0043l-.003-.0004-.016-.0016a.2169.2169 0 0 0-.018-.0009c-.353 0-.619.1023-.815.3111-.195.2102-.294.5184-.294.9201v2.0866ZM117.712 29.917c-.148 0-.279-.0533-.38-.1555a.514.514 0 0 1-.155-.373c0-.144.055-.2722.157-.3715.102-.0994.23-.1498.378-.1498.147 0 .274.049.378.144a.497.497 0 0 1 .16.3701c0 .1483-.051.2765-.15.3787-.1.1023-.235.157-.388.157ZM118.126 34.5192h-.835v-4.0953h.835v4.0953Z"/>
  <path fill-rule="evenodd" clip-rule="evenodd" d="M119.874 34.2875c.32.1771.694.2678 1.113.2678.321 0 .622-.0576.893-.1699.275-.1152.507-.2851.691-.5055l.089-.1065-.502-.5775-.123.1426c-.126.1469-.277.2578-.452.3283-.178.072-.374.1095-.581.1095-.265 0-.502-.0562-.703-.1642-.203-.108-.356-.2549-.468-.4478a1.1983 1.1983 0 0 1-.14-.3759h3.147v-.1627c0-.023.001-.0461.002-.0677a.9698.9698 0 0 0 .005-.0907c0-.1152-.007-.2275-.022-.3355l-.007-.0504c-.038-.252-.115-.4839-.229-.6941-.173-.3139-.412-.563-.711-.7373-.3-.1742-.646-.2621-1.027-.2621-.377 0-.723.0908-1.027.2708-.304.18-.546.4291-.72.7401-.173.3096-.26.6696-.26 1.0699 0 .4004.092.7618.273 1.0757.183.3139.438.5645.759.7431Zm2.131-2.2047h-2.31a1.303 1.303 0 0 1 .121-.3355c.101-.1901.238-.3341.419-.4392.18-.1037.388-.157.615-.157.232 0 .44.0533.614.157.177.1051.314.2491.417.4378.057.1036.098.216.124.3369Z"/>
  <path d="M127.362 34.519h-.837v-2.3025c0-.3514-.085-.6164-.252-.7877-.168-.1728-.403-.2563-.72-.2563-.239 0-.449.0475-.622.1425-.171.0936-.299.2232-.393.4003-.095.1786-.142.4004-.142.6596v2.1441h-.836v-4.0953h.814v.4003c.076-.0663.16-.1267.251-.18.287-.1699.632-.2563 1.023-.2563.33 0 .627.0648.882.1929.26.1325.468.3341.615.6019.144.2621.217.5933.217.9836v2.3529Z"/>
  <path fill-rule="evenodd" clip-rule="evenodd" d="M129.031 34.2886c.308.1772.661.2664 1.047.2664.361 0 .69-.0835.973-.252.117-.0662.223-.1454.32-.2376v.4508h.814v-5.6535h-.836v1.9887a1.6604 1.6604 0 0 0-.305-.2218c-.285-.1613-.61-.2434-.968-.2434-.386 0-.737.0893-1.045.2621-.31.1743-.556.4205-.733.733-.176.311-.265.6753-.265 1.0857 0 .4047.089.769.265 1.0815.177.3139.423.563.733.7401Zm.454-2.9692c.184-.1066.396-.1613.629-.1613.237 0 .453.0547.641.1613.185.1065.334.2577.44.4507.108.1944.163.4291.163.6969 0 .2636-.055.4968-.163.6941-.108.1973-.252.3456-.44.4536-.188.1066-.404.1613-.641.1613-.233 0-.445-.0547-.629-.1613-.186-.108-.332-.2563-.442-.455-.11-.1973-.166-.4306-.166-.6927 0-.2678.056-.5011.166-.6955.109-.1929.257-.3456.442-.4521Z"/>
  <path d="M134.458 34.5549c-.327 0-.64-.0475-.933-.1411-.296-.095-.535-.2174-.71-.3643l-.103-.0878.388-.6797.149.1109c.139.1051.322.1972.544.275.22.0778.457.1166.7.1166.402 0 .592-.0748.681-.1382.115-.0821.169-.1829.169-.3168 0-.121-.045-.1757-.078-.2045-.069-.0619-.166-.1109-.285-.144-.137-.0389-.293-.072-.463-.0993a11.3755 11.3755 0 0 1-.537-.1023 2.0782 2.0782 0 0 1-.517-.1829c-.167-.0864-.304-.2059-.407-.3571-.107-.1555-.161-.3614-.161-.6091 0-.239.067-.4565.201-.6466.133-.1872.327-.3355.576-.4406.242-.1008.537-.1526.879-.1526.257 0 .518.0345.774.1022.261.0691.48.1627.653.2765l.123.0821-.38.6984-.148-.1023a1.5415 1.5415 0 0 0-.488-.2246 2.1229 2.1229 0 0 0-.533-.0706c-.302 0-.523.049-.654.144-.118.0864-.174.1872-.174.3168 0 .1296.046.1858.081.2175.07.0648.168.1166.29.1555.139.0432.293.0792.46.1065.174.0288.354.0648.534.1066.186.0432.359.1022.514.1771.172.0821.311.1987.416.3485.108.1541.163.3542.163.5918 0 .2549-.073.481-.216.6696-.14.1844-.343.3284-.603.4263-.252.095-.556.1425-.905.1425Z"/>
  <path fill-rule="evenodd" clip-rule="evenodd" d="M.045 34.9612h34.9098V.0527H.0449v34.9085Zm16.0572-1.7265H1.7715v-14.865h6.8982l7.4325 14.865ZM9.7367 16.6431 2.3041 1.7779H15.069c-2.3121 1.6624-3.8209 4.3753-3.8209 7.4333 0 3.0571 1.5074 5.7694 3.8182 7.4319H9.7367Zm.8633 1.7266h13.797l-6.8985 13.7969L10.6 18.3697Zm14.6603-1.7266 7.4326-14.8652H20.0702c-3.9512.172-7.1143 3.4405-7.1143 7.4333 0 3.982 3.1446 7.2436 7.0822 7.4319h5.2222Zm4.6214 1.7266c1.4901 1.0075 2.6658 2.4463 3.3466 4.1357v-4.1357h-3.3466Zm3.3466-1.7266h-6.0378l6.0378-12.0755v12.0755Zm-25.4219 0L1.7714 4.5732v12.0699h6.035Zm11.0884 16.5916 7.2972-14.5944c3.4097.6452 5.9966 3.6471 5.9966 7.2416 0 3.8936-3.0351 7.0917-6.8636 7.3528h-6.4302Zm11.2152 0h3.1183v-3.9762c-.6456 1.6021-1.7364 2.9789-3.1183 3.9762Z"/>
</svg>
