<svg fill="none" xmlns="http://www.w3.org/2000/svg">
<g clip-path="url(#clip0_3155_2655)">
<path d="M11 22C17.0751 22 22 17.0751 22 11C22 4.92487 17.0751 0 11 0C4.92487 0 0 4.92487 0 11C0 17.0751 4.92487 22 11 22Z"/>
<path d="M11 5.75C13.8875 5.75 16.25 8.1 16.25 11C16.25 13.9 13.9 16.25 11 16.25C8.1 16.25 5.75 13.9 5.75 11C5.75 8.1 8.1125 5.75 11 5.75ZM11 5.25C7.825 5.25 5.25 7.825 5.25 11C5.25 14.175 7.825 16.75 11 16.75C14.175 16.75 16.75 14.175 16.75 11C16.75 7.825 14.175 5.25 11 5.25Z" />
<path d="M9 13.875L13.875 10.875L9 8.125V13.875Z" />
</g>
<defs>
<clipPath id="clip0_3155_2655">
<rect width="22" height="22"/>
</clipPath>
</defs>
</svg>
